<svg width="48" height="48" viewBox="0 0 48 48" fill="none" xmlns="http://www.w3.org/2000/svg">
<path opacity="0.16" d="M24 0C10.7625 0 0 10.7625 0 24C0 37.2375 10.7625 48 24 48C37.2375 48 48 37.2375 48 24C48 10.7625 37.2375 0 24 0Z" fill="#C6CACC"/>
<path d="M26.2982 36.6179V25.3885H30.0675L30.6319 21.0121H26.2982V18.218C26.2982 16.951 26.6501 16.0874 28.4672 16.0874L30.7846 16.0864V12.1723C30.3836 12.1191 29.0081 12 27.4077 12C24.0665 12 21.779 14.0394 21.779 17.7848V21.0123H18V25.3886H21.7789V36.6181L26.2982 36.6179Z" fill="#C6CACC"/>
</svg>
