<svg width="116" height="116" viewBox="0 0 116 116" fill="none" xmlns="http://www.w3.org/2000/svg">
<g clip-path="url(#clip0)">
<path d="M47.0891 20.6863L45.4445 29.3293C45.3588 29.78 45.4147 30.2432 45.6058 30.6668C45.797 31.0903 46.1158 31.4572 46.5262 31.726C46.9366 31.9947 47.4222 32.1546 47.9281 32.1876C48.4341 32.2206 48.9402 32.1253 49.3892 31.9125L58.0001 27.8327L66.6111 31.9131C67.0601 32.1259 67.5662 32.2212 68.0721 32.1882C68.5781 32.1552 69.0637 31.9953 69.4741 31.7266C69.8844 31.4578 70.2032 31.0909 70.3944 30.6674C70.5856 30.2439 70.6415 29.7806 70.5558 29.3299L68.9111 20.6863L75.8775 14.5656C76.2407 14.2464 76.4977 13.842 76.6192 13.3981C76.7408 12.9541 76.7222 12.4884 76.5654 12.0535C76.4087 11.6186 76.1201 11.2319 75.7322 10.9372C75.3444 10.6424 74.8728 10.4513 74.3708 10.3855L64.7438 9.12465L60.4391 1.26095C60.2146 0.850868 59.8672 0.505588 59.4364 0.264157C59.0055 0.0227256 58.5083 -0.105225 58.001 -0.105225C57.4937 -0.105225 56.9965 0.0227256 56.5657 0.264157C56.1348 0.505588 55.7875 0.850868 55.563 1.26095L51.2583 9.12465L41.6312 10.3855C41.1292 10.4513 40.6576 10.6424 40.2698 10.9372C39.882 11.2319 39.5934 11.6186 39.4366 12.0535C39.2799 12.4884 39.2612 12.9541 39.3828 13.3981C39.5044 13.842 39.7613 14.2464 40.1246 14.5656L47.0891 20.6863Z" fill="#3E4345"/>
<path d="M18.792 40.9217L18.4786 40.4692L17.9287 40.4919L8.90087 40.8639L8.9008 40.8639C8.61599 40.8756 8.34715 40.8074 8.12123 40.6751C7.89574 40.543 7.71562 40.3489 7.60011 40.1123C7.48434 39.8751 7.43546 39.5988 7.46798 39.3119C7.50056 39.0245 7.61359 38.7403 7.7997 38.4949C7.79971 38.4949 7.79973 38.4949 7.79974 38.4949L13.4048 31.1066L13.7168 30.6954L13.5623 30.2029L10.9068 21.7375C10.9068 21.7375 10.9068 21.7375 10.9068 21.7375C10.8262 21.4804 10.8179 21.193 10.8922 20.907L9.92787 20.6562L10.8922 20.907C10.9667 20.6206 11.1205 20.3511 11.339 20.1326C11.5575 19.9141 11.827 19.7603 12.1135 19.6858L11.8626 18.7215L12.1135 19.6858C12.3995 19.6114 12.6869 19.6198 12.9439 19.7004L21.4093 22.3559L21.9018 22.5104L22.313 22.1984L29.7013 16.5933C29.9467 16.4072 30.2309 16.2941 30.5184 16.2616C30.8052 16.229 31.0815 16.2779 31.3187 16.3937C31.5553 16.5092 31.7495 16.6893 31.8815 16.9148C32.0138 17.1407 32.0821 17.4096 32.0703 17.6944L31.6971 26.7234L31.6744 27.2734L32.1269 27.5868L39.3486 32.5888C39.3486 32.5889 39.3486 32.5889 39.3487 32.5889C39.5622 32.7369 39.7275 32.9443 39.8258 33.1912L40.7549 32.8215L39.8258 33.1912C39.9243 33.4388 39.9531 33.7213 39.8997 34.0086C39.8461 34.2963 39.7124 34.5741 39.5095 34.8067C39.3066 35.0394 39.0471 35.2124 38.7638 35.3077C38.7638 35.3077 38.7638 35.3077 38.7638 35.3077L30.0675 38.2334L29.597 38.3917L29.4386 38.8623L26.5125 47.5581L26.5125 47.5582C26.4171 47.8414 26.2442 48.1009 26.0115 48.3039C25.7788 48.5068 25.5011 48.6405 25.2133 48.6941C24.9261 48.7475 24.6435 48.7187 24.396 48.6202C24.1491 48.5219 23.9416 48.3565 23.7937 48.1431C23.7936 48.143 23.7936 48.143 23.7936 48.1429L18.792 40.9217Z" stroke="#00BAD4" stroke-width="2"/>
<path d="M83.9853 27.5854L84.4377 27.2721L84.4151 26.7222L84.0431 17.6943L84.0431 17.6943C84.0313 17.4094 84.0996 17.1406 84.2319 16.9147C84.3639 16.6892 84.5581 16.5091 84.7947 16.3936C85.0319 16.2778 85.3082 16.2289 85.595 16.2614C85.8824 16.294 86.1667 16.407 86.412 16.5932C86.4121 16.5932 86.4121 16.5932 86.4121 16.5932L93.8004 22.1983L94.2116 22.5103L94.7041 22.3558L103.169 19.7003C103.169 19.7003 103.169 19.7003 103.17 19.7003C103.427 19.6197 103.714 19.6113 104 19.6857L104.251 18.7213L104 19.6857C104.286 19.7602 104.556 19.9139 104.774 20.1325C104.993 20.351 105.147 20.6205 105.221 20.9069L106.186 20.6561L105.221 20.9069C105.296 21.1929 105.287 21.4804 105.207 21.7374L102.551 30.2028L102.397 30.6953L102.709 31.1065L108.314 38.4948C108.5 38.7401 108.613 39.0244 108.645 39.3118C108.678 39.5987 108.629 39.875 108.513 40.1122C108.398 40.3488 108.218 40.5429 107.992 40.675C107.766 40.8073 107.497 40.8755 107.213 40.8638L98.1836 40.4906L97.6336 40.4678L97.3202 40.9203L92.3182 48.142C92.3181 48.1421 92.3181 48.1421 92.3181 48.1421C92.1701 48.3556 91.9627 48.521 91.7158 48.6192L92.0855 49.5484L91.7158 48.6192C91.4682 48.7177 91.1857 48.7466 90.8984 48.6931C90.6107 48.6396 90.3329 48.5059 90.1002 48.303C89.8676 48.1 89.6946 47.8406 89.5993 47.5573C89.5993 47.5573 89.5993 47.5573 89.5993 47.5572L86.6736 38.861L86.5153 38.3904L86.0447 38.2321L77.3489 35.3059L77.3488 35.3059C77.0655 35.2106 76.8061 35.0377 76.6031 34.805C76.4002 34.5723 76.2665 34.2945 76.2129 34.0068C76.1595 33.7195 76.1883 33.437 76.2868 33.1894C76.3851 32.9425 76.5504 32.7351 76.7639 32.5871C76.764 32.5871 76.764 32.5871 76.764 32.5871L83.9853 27.5854Z" stroke="#00BAD4" stroke-width="2"/>
<path d="M57.6027 93.7915L57.9999 94.1424L58.3971 93.7915C60.8391 91.6346 65.9434 86.8838 70.442 81.1273C74.9184 75.3992 78.8936 68.5534 78.8943 62.2231C78.9028 59.3472 78.3702 56.4972 77.3262 53.8362C76.2822 51.1752 74.7471 48.7546 72.8075 46.7139C70.8678 44.6732 68.5617 43.0524 66.0204 41.9459C63.4791 40.8394 60.7534 40.2694 58 40.2694C55.2465 40.2694 52.5209 40.8394 49.9796 41.9459C47.4383 43.0524 45.1322 44.6732 43.1925 46.7139C41.2529 48.7546 39.7178 51.1752 38.6738 53.8362C37.6299 56.4969 37.0973 59.3467 37.1057 62.2223C37.1061 68.5528 41.0813 75.3988 45.5578 81.1271C50.0563 86.8835 55.1605 91.6342 57.6027 93.7915ZM40.7648 44.1028C45.3415 39.3025 51.5404 36.6079 57.9999 36.6C64.4594 36.6078 70.6584 39.3024 75.2351 44.1027C79.813 48.9042 82.3927 55.42 82.4 62.222C82.3997 70.4157 76.8831 79.1392 71.1237 85.9887C65.3897 92.808 59.5333 97.6333 59.0652 98.0153C58.7571 98.2666 58.3822 98.4 58 98.4C57.6178 98.4 57.2428 98.2666 56.9347 98.0152L56.5555 98.4801L56.9347 98.0152C56.4668 97.6334 50.6103 92.8081 44.8763 85.9887C39.1168 79.1391 33.6001 70.4155 33.6 62.2216C33.6074 55.4198 36.1871 48.9042 40.7648 44.1028Z" fill="#3E4345" stroke="white" stroke-width="1.2"/>
<path d="M58 73.7053H58.0007C61.0559 73.7019 63.9888 72.5248 66.1548 70.4265C68.3215 68.3275 69.5439 65.4775 69.5474 62.5007V62.5C69.5474 60.2795 68.8676 58.1105 67.5963 56.2674C66.3252 54.4245 64.5206 52.991 62.4128 52.1452C60.3052 51.2994 57.987 51.0784 55.7507 51.5094C53.5144 51.9403 51.4577 53.0044 49.8416 54.57C48.2253 56.1358 47.1223 58.1331 46.6752 60.3103C46.2282 62.4878 46.4578 64.7445 47.3343 66.7943C48.2106 68.8439 49.6934 70.5927 51.5919 71.8216C53.4903 73.0505 55.7203 73.7053 58 73.7053ZM49.4369 50.1159C51.9699 48.4763 54.9498 47.6001 57.9997 47.6C62.0887 47.6046 66.0051 49.1804 68.8909 51.976C71.7761 54.771 73.3953 58.5564 73.4 62.5007C73.3999 65.4431 72.4992 68.321 70.8096 70.7707C69.1197 73.2208 66.7157 75.1332 63.8995 76.2633C61.0832 77.3934 57.9831 77.6894 54.9921 77.113C52.0012 76.5367 49.2563 75.1145 47.1038 73.0292C44.9514 70.9441 43.4879 68.2899 42.8952 65.4032C42.3025 62.5167 42.6065 59.5246 43.7696 56.8043C44.9328 54.0838 46.904 51.7554 49.4369 50.1159Z" fill="#3E4345" stroke="white" stroke-width="1.2"/>
<path d="M62.3287 56.5782L56.4027 61.9906L54.827 60.1918C54.404 59.7167 53.8337 59.4516 53.2403 59.4543C52.6469 59.4571 52.0784 59.7275 51.6588 60.2065C51.2392 60.6856 51.0024 61.3345 51 62.012C50.9976 62.6895 51.2298 63.3407 51.6459 63.8236L54.6452 67.2479C55.0366 67.6947 55.5586 67.9611 56.1113 67.9961C56.664 68.031 57.2086 67.8321 57.6409 67.4373L65.139 60.5888C65.3728 60.3794 65.568 60.1191 65.7132 59.823C65.8584 59.527 65.9508 59.201 65.985 58.8639C66.0193 58.5269 65.9946 58.1854 65.9126 57.8593C65.8306 57.5332 65.6927 57.2288 65.5071 56.9638C65.3214 56.6989 65.0916 56.4786 64.8309 56.3156C64.5702 56.1526 64.2839 56.0502 63.9883 56.0144C63.6928 55.9785 63.3939 56.0099 63.1091 56.1066C62.8242 56.2034 62.559 56.3637 62.3287 56.5782Z" fill="#00BAD4"/>
</g>
<defs>
<clipPath id="clip0">
<rect width="116" height="116" fill="white"/>
</clipPath>
</defs>
</svg>
