<svg width="64" height="64" viewBox="0 0 64 64" fill="none" xmlns="http://www.w3.org/2000/svg">
<path d="M3.00037 19.9937H2.00037V20.9937V54.3435C2.00037 56.4907 3.75307 58.2434 5.90035 58.2434H58.1001C60.2473 58.2434 62 56.4907 62 54.3435V20.9937V19.9937H61H3.00037Z" stroke="#3E4345" stroke-width="2"/>
<path d="M61 19.9063H62V18.9063V11.6563C62 9.50906 60.2473 7.75635 58.1001 7.75635H5.90035C3.75307 7.75635 2.00037 9.50906 2.00037 11.6563V18.9063V19.9063H3.00037H61Z" stroke="#3E4345" stroke-width="2"/>
<path d="M21.1251 16.0065H57.3749C57.7751 16.0065 58.0999 15.6817 58.0999 15.2815V12.3815C58.0999 11.9813 57.7751 11.6565 57.3749 11.6565H21.1251C20.7249 11.6565 20.4001 11.9813 20.4001 12.3815V15.2815C20.4001 15.6817 20.7249 16.0065 21.1251 16.0065Z" fill="#00BAD4"/>
<path d="M8.07501 16.0065C9.27622 16.0065 10.25 15.0327 10.25 13.8315C10.25 12.6303 9.27622 11.6565 8.07501 11.6565C6.8738 11.6565 5.90002 12.6303 5.90002 13.8315C5.90002 15.0327 6.8738 16.0065 8.07501 16.0065Z" fill="#00BAD4"/>
<path d="M15.3248 16.0065C16.526 16.0065 17.4998 15.0327 17.4998 13.8315C17.4998 12.6303 16.526 11.6565 15.3248 11.6565C14.1236 11.6565 13.1498 12.6303 13.1498 13.8315C13.1498 15.0327 14.1236 16.0065 15.3248 16.0065Z" fill="#C6CACC"/>
<path d="M19.6668 41.9991H25.6668C26.0348 41.9991 26.3335 41.7004 26.3335 41.3324C26.3335 40.9644 26.0348 40.6658 25.6668 40.6658H19.6668C19.2988 40.6658 19.0001 40.9644 19.0001 41.3324C19.0001 41.7004 19.2988 41.9991 19.6668 41.9991Z" fill="#C6CACC"/>
<path d="M46.3333 40.6658H40.3333C39.9653 40.6658 39.6666 40.9644 39.6666 41.3324C39.6666 41.7004 39.9653 41.9991 40.3333 41.9991H46.3333C46.7013 41.9991 47 41.7004 47 41.3324C47 40.9644 46.7013 40.6658 46.3333 40.6658Z" fill="#C6CACC"/>
<path d="M45.2815 34.6031L39.8441 37.1391C39.5108 37.2951 39.1135 37.1497 38.9588 36.8164C38.8028 36.4831 38.9481 36.0857 39.2815 35.9297L44.7201 33.3937C45.0535 33.2377 45.4508 33.3817 45.6068 33.7164C45.7588 34.0511 45.6161 34.4484 45.2815 34.6031Z" fill="#C6CACC"/>
<path d="M44.7588 47.863L39.8441 44.4217C39.5428 44.2097 39.1268 44.283 38.9148 44.5857C38.7028 44.887 38.7761 45.303 39.0788 45.5137L43.9934 48.955C44.2948 49.167 44.7108 49.0937 44.9214 48.791C45.1321 48.4884 45.0614 48.0737 44.7588 47.863Z" fill="#C6CACC"/>
<path d="M20.7186 34.6031L26.1573 37.1391C26.4906 37.2951 26.888 37.1497 27.0426 36.8164C27.1986 36.4831 27.0546 36.0857 26.72 35.9297L21.2813 33.3937C20.948 33.2377 20.5506 33.3817 20.3946 33.7164C20.2413 34.0511 20.384 34.4484 20.7186 34.6031Z" fill="#C6CACC"/>
<path d="M21.2413 47.863L26.156 44.4217C26.4573 44.2097 26.8733 44.283 27.084 44.5857C27.296 44.887 27.2226 45.303 26.92 45.5137L22.0053 48.955C21.704 49.167 21.288 49.0937 21.076 48.791C20.8653 48.4897 20.94 48.0737 21.2413 47.863Z" fill="#C6CACC"/>
<path d="M28.3908 30.3323L25.1961 27.1377C24.9361 26.8777 24.9361 26.455 25.1961 26.195C25.4561 25.935 25.8788 25.935 26.1388 26.195L29.3334 29.3897L28.3908 30.3323Z" fill="#C6CACC"/>
<path d="M37.6093 30.3323L40.804 27.1377C41.064 26.8777 41.064 26.455 40.804 26.195C40.544 25.935 40.1213 25.935 39.8613 26.195L36.6666 29.3897L37.6093 30.3323Z" fill="#C6CACC"/>
<path d="M25.2495 31.999C23.8441 34.1804 23.0001 36.9644 23.0001 39.999C23.0001 46.9937 27.4775 52.6657 33.0001 52.6657C38.5228 52.6657 43.0001 46.9937 43.0001 39.999C43.0001 36.9644 42.1561 34.1804 40.7495 31.999H25.2495Z" fill="#00BAD4"/>
<path d="M33 34.6659C35.9893 34.6659 38.7667 33.8912 41.0853 32.5659C39.268 29.3992 36.3267 27.3325 33 27.3325C29.6733 27.3325 26.732 29.3992 24.9147 32.5659C27.2333 33.8912 30.0107 34.6659 33 34.6659Z" fill="#C6CACC"/>
</svg>
