<svg width="64" height="64" viewBox="0 0 64 64" fill="none" xmlns="http://www.w3.org/2000/svg">
<path d="M3.00037 19.9938H2.00037V20.9938V54.3436C2.00037 56.4909 3.75307 58.2436 5.90035 58.2436H58.1001C60.2473 58.2436 62 56.4909 62 54.3436V20.9938V19.9938H61H3.00037Z" stroke="#3E4345" stroke-width="2"/>
<path d="M61 19.9063H62V18.9063V11.6563C62 9.50906 60.2473 7.75635 58.1001 7.75635H5.90035C3.75307 7.75635 2.00037 9.50906 2.00037 11.6563V18.9063V19.9063H3.00037H61Z" stroke="#3E4345" stroke-width="2"/>
<path d="M21.1251 16.0063H57.3749C57.7751 16.0063 58.0999 15.6816 58.0999 15.2814V12.3814C58.0999 11.9812 57.7751 11.6564 57.3749 11.6564H21.1251C20.7249 11.6564 20.4001 11.9812 20.4001 12.3814V15.2814C20.4001 15.6816 20.7249 16.0063 21.1251 16.0063Z" fill="#00BAD4"/>
<path d="M8.07501 16.0063C9.27622 16.0063 10.25 15.0326 10.25 13.8314C10.25 12.6301 9.27622 11.6564 8.07501 11.6564C6.8738 11.6564 5.90002 12.6301 5.90002 13.8314C5.90002 15.0326 6.8738 16.0063 8.07501 16.0063Z" fill="#00BAD4"/>
<path d="M15.3248 16.0063C16.526 16.0063 17.4998 15.0326 17.4998 13.8314C17.4998 12.6301 16.526 11.6564 15.3248 11.6564C14.1236 11.6564 13.1498 12.6301 13.1498 13.8314C13.1498 15.0326 14.1236 16.0063 15.3248 16.0063Z" fill="#C6CACC"/>
<path d="M30.2668 30H7.86679C6.83639 30 6.00012 30.8363 6.00012 31.8667C6.00012 32.8971 6.83639 33.7333 7.86679 33.7333H30.2668C31.2972 33.7333 32.1335 32.8971 32.1335 31.8667C32.1335 30.8363 31.2972 30 30.2668 30Z" fill="#C6CACC"/>
<path d="M30.2668 37.9333H7.86679C6.83639 37.9333 6.00012 38.7696 6.00012 39.8C6.00012 40.8304 6.83639 41.6667 7.86679 41.6667H30.2668C31.2972 41.6667 32.1335 40.8304 32.1335 39.8C32.1335 38.7696 31.2972 37.9333 30.2668 37.9333Z" fill="#C6CACC"/>
<path d="M22.8001 45.8667H7.86679C6.83639 45.8667 6.00012 46.703 6.00012 47.7334C6.00012 48.7638 6.83639 49.6 7.86679 49.6H22.8001C23.8305 49.6 24.6668 48.7638 24.6668 47.7334C24.6668 46.703 23.8305 45.8667 22.8001 45.8667Z" fill="#C6CACC"/>
<path d="M57.7486 30.447L55.5521 28.2506C55.218 27.9165 54.6743 27.9165 54.3402 28.2506L53.3062 29.2859L56.7145 32.6943L57.7499 31.6602C58.084 31.3261 58.084 30.7837 57.7486 30.447Z" fill="#00BAD4"/>
<path d="M36.2793 46.3115L35.1334 50.867L39.6889 49.7199L40.1666 45.7678L36.2793 46.3115Z" fill="#C6CACC"/>
<path d="M53.8062 35.6011L39.69 49.7199L36.2816 46.3115L50.3978 32.1927L53.8062 35.6011Z" fill="#00BAD4"/>
<path d="M50.3961 32.1939L53.304 29.2848L56.7149 32.6932L53.807 35.6023L50.3961 32.1939Z" fill="#C6CACC"/>
<path d="M35.714 48.564L35.1334 50.8671L37.4366 50.2866L35.714 48.564Z" fill="#00BAD4"/>
</svg>
