<svg width="65" height="64" viewBox="0 0 65 64" fill="none" xmlns="http://www.w3.org/2000/svg">
<path d="M3.50037 19.9937H2.50037V20.9937V54.3435C2.50037 56.4907 4.25307 58.2434 6.40035 58.2434H58.6001C60.7473 58.2434 62.5 56.4907 62.5 54.3435V20.9937V19.9937H61.5H3.50037Z" stroke="#3E4345" stroke-width="2"/>
<path d="M61.5 19.9063H62.5V18.9063V11.6563C62.5 9.50906 60.7473 7.75635 58.6001 7.75635H6.40035C4.25307 7.75635 2.50037 9.50906 2.50037 11.6563V18.9063V19.9063H3.50037H61.5Z" stroke="#3E4345" stroke-width="2"/>
<path d="M21.6251 16.0065H57.8749C58.2751 16.0065 58.5999 15.6817 58.5999 15.2815V12.3815C58.5999 11.9813 58.2751 11.6565 57.8749 11.6565H21.6251C21.2249 11.6565 20.9001 11.9813 20.9001 12.3815V15.2815C20.9001 15.6817 21.2249 16.0065 21.6251 16.0065Z" fill="#00BAD4"/>
<path d="M8.57501 16.0065C9.77622 16.0065 10.75 15.0327 10.75 13.8315C10.75 12.6303 9.77622 11.6565 8.57501 11.6565C7.3738 11.6565 6.40002 12.6303 6.40002 13.8315C6.40002 15.0327 7.3738 16.0065 8.57501 16.0065Z" fill="#00BAD4"/>
<path d="M15.8248 16.0065C17.026 16.0065 17.9998 15.0327 17.9998 13.8315C17.9998 12.6303 17.026 11.6565 15.8248 11.6565C14.6236 11.6565 13.6498 12.6303 13.6498 13.8315C13.6498 15.0327 14.6236 16.0065 15.8248 16.0065Z" fill="#C6CACC"/>
<path d="M44.0539 39.5619C44.0539 45.7968 38.9976 50.853 32.7627 50.853C26.5278 50.853 21.4715 45.7968 21.4715 39.5619C21.4715 33.327 26.5278 28.2707 32.7627 28.2707C38.9976 28.2707 44.0539 33.327 44.0539 39.5619Z" stroke="#00BAD4" stroke-width="2.29391"/>
<path d="M31.0789 44.6121L26.1037 39.6369C25.8611 39.3943 25.8611 39 26.1037 38.7575L26.983 37.8781C27.2256 37.6356 27.6199 37.6356 27.8624 37.8781L31.5192 41.5337L38.2843 34.7686C38.5268 34.526 38.9211 34.526 39.1637 34.7686L40.0431 35.648C40.2856 35.8905 40.2856 36.2848 40.0431 36.5273L31.9583 44.6121C31.7157 44.8546 31.3227 44.8546 31.0789 44.6121Z" fill="#C6CACC"/>
</svg>
