<svg width="65" height="64" viewBox="0 0 65 64" fill="none" xmlns="http://www.w3.org/2000/svg">
<path d="M3.50037 19.9938H2.50037V20.9938V54.3436C2.50037 56.4909 4.25307 58.2436 6.40035 58.2436H58.6001C60.7473 58.2436 62.5 56.4909 62.5 54.3436V20.9938V19.9938H61.5H3.50037Z" stroke="#3E4345" stroke-width="2"/>
<path d="M61.5 19.9063H62.5V18.9063V11.6563C62.5 9.50906 60.7473 7.75635 58.6001 7.75635H6.40035C4.25307 7.75635 2.50037 9.50906 2.50037 11.6563V18.9063V19.9063H3.50037H61.5Z" stroke="#3E4345" stroke-width="2"/>
<path d="M21.6251 16.0063H57.8749C58.2751 16.0063 58.5999 15.6816 58.5999 15.2814V12.3814C58.5999 11.9812 58.2751 11.6564 57.8749 11.6564H21.6251C21.2249 11.6564 20.9001 11.9812 20.9001 12.3814V15.2814C20.9001 15.6816 21.2249 16.0063 21.6251 16.0063Z" fill="#00BAD4"/>
<path d="M8.57501 16.0063C9.77622 16.0063 10.75 15.0326 10.75 13.8314C10.75 12.6301 9.77622 11.6564 8.57501 11.6564C7.3738 11.6564 6.40002 12.6301 6.40002 13.8314C6.40002 15.0326 7.3738 16.0063 8.57501 16.0063Z" fill="#00BAD4"/>
<path d="M15.8248 16.0063C17.026 16.0063 17.9998 15.0326 17.9998 13.8314C17.9998 12.6301 17.026 11.6564 15.8248 11.6564C14.6236 11.6564 13.6498 12.6301 13.6498 13.8314C13.6498 15.0326 14.6236 16.0063 15.8248 16.0063Z" fill="#C6CACC"/>
<path d="M36.6 47.5843L26.3501 37.5844L17.5494 46.1703L14.6508 43.3424L26.3501 31.9284L36.6 41.9284L47.4506 31.3424L50.3493 34.1704L36.6 47.5843Z" fill="#C6CACC"/>
<path d="M48.9002 36.7563C51.1645 36.7563 53.0001 34.9655 53.0001 32.7563C53.0001 30.5472 51.1645 28.7563 48.9002 28.7563C46.6358 28.7563 44.8002 30.5472 44.8002 32.7563C44.8002 34.9655 46.6358 36.7563 48.9002 36.7563Z" fill="#00BAD4"/>
<path d="M36.6001 48.7564C38.8645 48.7564 40.7001 46.9656 40.7001 44.7564C40.7001 42.5473 38.8645 40.7565 36.6001 40.7565C34.3357 40.7565 32.5001 42.5473 32.5001 44.7564C32.5001 46.9656 34.3357 48.7564 36.6001 48.7564Z" fill="#00BAD4"/>
<path d="M26.3501 38.7564C28.6145 38.7564 30.4501 36.9656 30.4501 34.7565C30.4501 32.5473 28.6145 30.7565 26.3501 30.7565C24.0857 30.7565 22.2501 32.5473 22.2501 34.7565C22.2501 36.9656 24.0857 38.7564 26.3501 38.7564Z" fill="#00BAD4"/>
<path d="M16.1001 48.7564C18.3645 48.7564 20.2001 46.9656 20.2001 44.7564C20.2001 42.5473 18.3645 40.7565 16.1001 40.7565C13.8357 40.7565 12.0001 42.5473 12.0001 44.7564C12.0001 46.9656 13.8357 48.7564 16.1001 48.7564Z" fill="#00BAD4"/>
</svg>
