<svg width="64" height="64" viewBox="0 0 64 64" fill="none" xmlns="http://www.w3.org/2000/svg">
<path d="M3.00037 19.9938H2.00037V20.9938V54.3436C2.00037 56.4909 3.75307 58.2436 5.90035 58.2436H58.1001C60.2473 58.2436 62 56.4909 62 54.3436V20.9938V19.9938H61H3.00037Z" stroke="#3E4345" stroke-width="2"/>
<path d="M61 19.9063H62V18.9063V11.6563C62 9.50906 60.2473 7.75635 58.1001 7.75635H5.90035C3.75307 7.75635 2.00037 9.50906 2.00037 11.6563V18.9063V19.9063H3.00037H61Z" stroke="#3E4345" stroke-width="2"/>
<path d="M21.1251 16.0063H57.3749C57.7751 16.0063 58.0999 15.6816 58.0999 15.2814V12.3814C58.0999 11.9812 57.7751 11.6564 57.3749 11.6564H21.1251C20.7249 11.6564 20.4001 11.9812 20.4001 12.3814V15.2814C20.4001 15.6816 20.7249 16.0063 21.1251 16.0063Z" fill="#00BAD4"/>
<path d="M8.07501 16.0063C9.27622 16.0063 10.25 15.0326 10.25 13.8314C10.25 12.6301 9.27622 11.6564 8.07501 11.6564C6.8738 11.6564 5.90002 12.6301 5.90002 13.8314C5.90002 15.0326 6.8738 16.0063 8.07501 16.0063Z" fill="#00BAD4"/>
<path d="M15.3248 16.0063C16.526 16.0063 17.4998 15.0326 17.4998 13.8314C17.4998 12.6301 16.526 11.6564 15.3248 11.6564C14.1236 11.6564 13.1498 12.6301 13.1498 13.8314C13.1498 15.0326 14.1236 16.0063 15.3248 16.0063Z" fill="#C6CACC"/>
<path d="M19.0677 46.3914L19.0675 46.3912L15.516 39.8797C15.516 39.8797 15.5159 39.8797 15.5159 39.8797C15.2164 39.332 15.2167 38.6692 15.5158 38.1206L15.5158 38.1205L19.0675 31.6087L19.0677 31.6085C19.2561 31.2638 19.6193 31.0481 20.013 31.0481H22.1688C22.7941 31.0481 23.1895 31.7166 22.8932 32.2656L22.8925 32.2668L19.2192 39L22.8924 45.7329L19.0677 46.3914ZM19.0677 46.3914C19.2561 46.7361 19.6193 46.9519 20.013 46.9519H22.1688C22.7946 46.9519 23.1924 46.2821 22.8925 45.7332L19.0677 46.3914Z" fill="#C6CACC" stroke="#C6CACC" stroke-width="0.614273"/>
<path d="M36.6628 24.9322H38.3095C38.9384 24.9322 39.3793 25.5542 39.1694 26.1474L36.6628 24.9322ZM36.6628 24.9322C36.2243 24.9322 35.8327 25.2081 35.6867 25.6234L36.6628 24.9322ZM29.9119 52.3759L39.1693 26.1477L35.6865 25.6239L26.429 51.8522C26.429 51.8523 26.429 51.8524 26.4289 51.8525C26.2191 52.4456 26.6599 53.0676 27.2889 53.0676H28.9355C29.3742 53.0676 29.7659 52.7916 29.9118 52.3762C29.9118 52.3761 29.9118 52.376 29.9119 52.3759Z" fill="#00BAD4" stroke="#00BAD4" stroke-width="0.614273"/>
<path d="M46.5308 46.3913L46.5309 46.3911L50.0825 39.8796C50.0825 39.8796 50.0825 39.8795 50.0826 39.8795C50.382 39.3319 50.3818 38.6691 50.0827 38.1205L50.0827 38.1204L46.5309 31.6086L46.5308 31.6084C46.3424 31.2637 45.9791 31.048 45.5855 31.048H43.4297C42.8044 31.048 42.4089 31.7165 42.7053 32.2655L42.7053 32.2655L42.7059 32.2667L46.3793 38.9999L42.7061 45.7328C42.706 45.7329 42.706 45.7329 42.706 45.733C42.706 45.733 42.706 45.733 42.7059 45.733C42.4061 46.282 42.8039 46.9517 43.4297 46.9517H45.5855C45.9791 46.9517 46.3424 46.736 46.5308 46.3913Z" fill="#C6CACC" stroke="#C6CACC" stroke-width="0.614273"/>
</svg>
