<svg width="64" height="64" viewBox="0 0 64 64" fill="none" xmlns="http://www.w3.org/2000/svg">
<path d="M3.00037 19.9938H2.00037V20.9938V54.3436C2.00037 56.4909 3.75307 58.2436 5.90035 58.2436H58.1001C60.2473 58.2436 62 56.4909 62 54.3436V20.9938V19.9938H61H3.00037Z" stroke="#3E4345" stroke-width="2"/>
<path d="M61 19.9063H62V18.9063V11.6563C62 9.50906 60.2473 7.75635 58.1001 7.75635H5.90035C3.75307 7.75635 2.00037 9.50906 2.00037 11.6563V18.9063V19.9063H3.00037H61Z" stroke="#3E4345" stroke-width="2"/>
<path d="M21.1251 16.0063H57.3749C57.7751 16.0063 58.0999 15.6816 58.0999 15.2814V12.3814C58.0999 11.9812 57.7751 11.6564 57.3749 11.6564H21.1251C20.7249 11.6564 20.4001 11.9812 20.4001 12.3814V15.2814C20.4001 15.6816 20.7249 16.0063 21.1251 16.0063Z" fill="#00BAD4"/>
<path d="M8.07501 16.0063C9.27622 16.0063 10.25 15.0326 10.25 13.8314C10.25 12.6301 9.27622 11.6564 8.07501 11.6564C6.8738 11.6564 5.90002 12.6301 5.90002 13.8314C5.90002 15.0326 6.8738 16.0063 8.07501 16.0063Z" fill="#00BAD4"/>
<path d="M15.3248 16.0063C16.526 16.0063 17.4998 15.0326 17.4998 13.8314C17.4998 12.6301 16.526 11.6564 15.3248 11.6564C14.1236 11.6564 13.1498 12.6301 13.1498 13.8314C13.1498 15.0326 14.1236 16.0063 15.3248 16.0063Z" fill="#C6CACC"/>
<path d="M36.3498 36.8563H8.79997C7.99957 36.8563 7.34998 36.2067 7.34998 35.4063V26.7063C7.34998 25.9059 7.99957 25.2563 8.79997 25.2563H36.3498C37.1502 25.2563 37.7998 25.9059 37.7998 26.7063V35.4063C37.7998 36.2067 37.1502 36.8563 36.3498 36.8563Z" fill="#C6CACC"/>
<path d="M36.3498 52.8062H8.79997C7.99957 52.8062 7.34998 52.1566 7.34998 51.3562V42.6563C7.34998 41.8559 7.99957 41.2063 8.79997 41.2063H36.3498C37.1502 41.2063 37.7998 41.8559 37.7998 42.6563V51.3562C37.7998 52.1566 37.1502 52.8062 36.3498 52.8062Z" fill="#00BAD4"/>
<path d="M55.1997 52.8062H43.5998C42.7994 52.8062 42.1498 52.1566 42.1498 51.3562V26.7063C42.1498 25.9059 42.7994 25.2563 43.5998 25.2563H55.1997C56.0001 25.2563 56.6497 25.9059 56.6497 26.7063V51.3562C56.6497 52.1566 56.0001 52.8062 55.1997 52.8062Z" fill="#C6CACC"/>
</svg>
