<svg width="65" height="64" viewBox="0 0 65 64" fill="none" xmlns="http://www.w3.org/2000/svg">
<path d="M3.50037 19.9938H2.50037V20.9938V54.3436C2.50037 56.4909 4.25307 58.2436 6.40035 58.2436H58.6001C60.7473 58.2436 62.5 56.4909 62.5 54.3436V20.9938V19.9938H61.5H3.50037Z" stroke="#3E4345" stroke-width="2"/>
<path d="M61.5 19.9063H62.5V18.9063V11.6563C62.5 9.50906 60.7473 7.75635 58.6001 7.75635H6.40035C4.25307 7.75635 2.50037 9.50906 2.50037 11.6563V18.9063V19.9063H3.50037H61.5Z" stroke="#3E4345" stroke-width="2"/>
<path d="M21.6251 16.0063H57.8749C58.2751 16.0063 58.5999 15.6816 58.5999 15.2814V12.3814C58.5999 11.9812 58.2751 11.6564 57.8749 11.6564H21.6251C21.2249 11.6564 20.9001 11.9812 20.9001 12.3814V15.2814C20.9001 15.6816 21.2249 16.0063 21.6251 16.0063Z" fill="#00BAD4"/>
<path d="M8.57501 16.0063C9.77622 16.0063 10.75 15.0326 10.75 13.8314C10.75 12.6301 9.77622 11.6564 8.57501 11.6564C7.3738 11.6564 6.40002 12.6301 6.40002 13.8314C6.40002 15.0326 7.3738 16.0063 8.57501 16.0063Z" fill="#00BAD4"/>
<path d="M15.8248 16.0063C17.026 16.0063 17.9998 15.0326 17.9998 13.8314C17.9998 12.6301 17.026 11.6564 15.8248 11.6564C14.6236 11.6564 13.6498 12.6301 13.6498 13.8314C13.6498 15.0326 14.6236 16.0063 15.8248 16.0063Z" fill="#C6CACC"/>
<path d="M27.9132 27.46H7.68574C6.75528 27.46 6.00012 28.2151 6.00012 29.1456C6.00012 30.076 6.75528 30.8312 7.68574 30.8312H27.9132C28.8436 30.8312 29.5988 30.076 29.5988 29.1456C29.5988 28.2151 28.8436 27.46 27.9132 27.46Z" fill="#C6CACC"/>
<path d="M27.9132 34.6238H7.68574C6.75528 34.6238 6.00012 35.3789 6.00012 36.3094C6.00012 37.2399 6.75528 37.995 7.68574 37.995H27.9132C28.8436 37.995 29.5988 37.2399 29.5988 36.3094C29.5988 35.3789 28.8436 34.6238 27.9132 34.6238Z" fill="#C6CACC"/>
<path d="M21.1707 41.7877H7.68574C6.75528 41.7877 6.00012 42.5429 6.00012 43.4733C6.00012 44.4038 6.75528 45.159 7.68574 45.159H21.1707C22.1012 45.159 22.8563 44.4038 22.8563 43.4733C22.8563 42.5429 22.1012 41.7877 21.1707 41.7877Z" fill="#C6CACC"/>
<path d="M58.8532 39.5619C58.8532 45.7968 53.7969 50.853 47.562 50.853C41.3271 50.853 36.2709 45.7968 36.2709 39.5619C36.2709 33.327 41.3271 28.2707 47.562 28.2707C53.7969 28.2707 58.8532 33.327 58.8532 39.5619Z" stroke="#00BAD4" stroke-width="2.29391"/>
<path d="M45.8782 44.6121L40.903 39.6369C40.6604 39.3943 40.6604 39 40.903 38.7575L41.7824 37.8781C42.0249 37.6356 42.4192 37.6356 42.6617 37.8781L46.3185 41.5337L53.0836 34.7686C53.3262 34.526 53.7204 34.526 53.963 34.7686L54.8424 35.648C55.0849 35.8905 55.0849 36.2848 54.8424 36.5273L46.7576 44.6121C46.5151 44.8546 46.122 44.8546 45.8782 44.6121Z" fill="#C6CACC"/>
</svg>
