<svg width="64" height="64" viewBox="0 0 64 64" fill="none" xmlns="http://www.w3.org/2000/svg">
<path d="M3.00037 19.9937H2.00037V20.9937V54.3435C2.00037 56.4907 3.75307 58.2434 5.90035 58.2434H58.1001C60.2473 58.2434 62 56.4907 62 54.3435V20.9937V19.9937H61H3.00037Z" stroke="#3E4345" stroke-width="2"/>
<path d="M61 19.9063H62V18.9063V11.6563C62 9.50906 60.2473 7.75635 58.1001 7.75635H5.90035C3.75307 7.75635 2.00037 9.50906 2.00037 11.6563V18.9063V19.9063H3.00037H61Z" stroke="#3E4345" stroke-width="2"/>
<path d="M21.1251 16.0065H57.3749C57.7751 16.0065 58.0999 15.6817 58.0999 15.2815V12.3815C58.0999 11.9813 57.7751 11.6565 57.3749 11.6565H21.1251C20.7249 11.6565 20.4001 11.9813 20.4001 12.3815V15.2815C20.4001 15.6817 20.7249 16.0065 21.1251 16.0065Z" fill="#00BAD4"/>
<path d="M8.07501 16.0065C9.27622 16.0065 10.25 15.0327 10.25 13.8315C10.25 12.6303 9.27622 11.6565 8.07501 11.6565C6.8738 11.6565 5.90002 12.6303 5.90002 13.8315C5.90002 15.0327 6.8738 16.0065 8.07501 16.0065Z" fill="#00BAD4"/>
<path d="M15.3248 16.0065C16.526 16.0065 17.4998 15.0327 17.4998 13.8315C17.4998 12.6303 16.526 11.6565 15.3248 11.6565C14.1236 11.6565 13.1498 12.6303 13.1498 13.8315C13.1498 15.0327 14.1236 16.0065 15.3248 16.0065Z" fill="#C6CACC"/>
<path d="M40.2499 43.625V47.75H23.7499V43.625H20.9999V47.75C20.9999 49.2625 22.2374 50.5 23.7499 50.5H40.2499C41.7624 50.5 42.9999 49.2625 42.9999 47.75V43.625H40.2499Z" fill="#C6CACC"/>
<path d="M27.0636 35.9387L25.1249 34L31.9999 27.125L38.8749 34L36.9361 35.9387L33.3749 32.3912V43.625H30.6249V32.3912L27.0636 35.9387Z" fill="#00BAD4"/>
</svg>
