<svg width="64" height="64" viewBox="0 0 64 64" fill="none" xmlns="http://www.w3.org/2000/svg">
<path d="M3.00037 19.9938H2.00037V20.9938V54.3436C2.00037 56.4909 3.75307 58.2436 5.90035 58.2436H58.1001C60.2473 58.2436 62 56.4909 62 54.3436V20.9938V19.9938H61H3.00037Z" stroke="#3E4345" stroke-width="2"/>
<path d="M61 19.9063H62V18.9063V11.6563C62 9.50906 60.2473 7.75635 58.1001 7.75635H5.90035C3.75307 7.75635 2.00037 9.50906 2.00037 11.6563V18.9063V19.9063H3.00037H61Z" stroke="#3E4345" stroke-width="2"/>
<path d="M21.1251 16.0063H57.3749C57.7751 16.0063 58.0999 15.6816 58.0999 15.2814V12.3814C58.0999 11.9812 57.7751 11.6564 57.3749 11.6564H21.1251C20.7249 11.6564 20.4001 11.9812 20.4001 12.3814V15.2814C20.4001 15.6816 20.7249 16.0063 21.1251 16.0063Z" fill="#00BAD4"/>
<path d="M8.07501 16.0063C9.27622 16.0063 10.25 15.0326 10.25 13.8314C10.25 12.6301 9.27622 11.6564 8.07501 11.6564C6.8738 11.6564 5.90002 12.6301 5.90002 13.8314C5.90002 15.0326 6.8738 16.0063 8.07501 16.0063Z" fill="#00BAD4"/>
<path d="M15.3248 16.0063C16.526 16.0063 17.4998 15.0326 17.4998 13.8314C17.4998 12.6301 16.526 11.6564 15.3248 11.6564C14.1236 11.6564 13.1498 12.6301 13.1498 13.8314C13.1498 15.0326 14.1236 16.0063 15.3248 16.0063Z" fill="#C6CACC"/>
<path d="M34.9334 28.4667H12.5334C11.503 28.4667 10.6667 29.3029 10.6667 30.3333C10.6667 31.3637 11.503 32.2 12.5334 32.2H34.9334C35.9638 32.2 36.8001 31.3637 36.8001 30.3333C36.8001 29.3029 35.9638 28.4667 34.9334 28.4667Z" fill="#C6CACC"/>
<path d="M34.9334 36.4H12.5334C11.503 36.4 10.6667 37.2363 10.6667 38.2667C10.6667 39.2971 11.503 40.1334 12.5334 40.1334H34.9334C35.9638 40.1334 36.8001 39.2971 36.8001 38.2667C36.8001 37.2363 35.9638 36.4 34.9334 36.4Z" fill="#C6CACC"/>
<path d="M27.4667 44.3334H12.5334C11.503 44.3334 10.6667 45.1696 10.6667 46.2C10.6667 47.2304 11.503 48.0667 12.5334 48.0667H27.4667C28.4971 48.0667 29.3334 47.2304 29.3334 46.2C29.3334 45.1696 28.4971 44.3334 27.4667 44.3334Z" fill="#C6CACC"/>
<path d="M49.4001 35.9333C51.4619 35.9333 53.1334 34.2619 53.1334 32.2C53.1334 30.1381 51.4619 28.4667 49.4001 28.4667C47.3382 28.4667 45.6667 30.1381 45.6667 32.2C45.6667 34.2619 47.3382 35.9333 49.4001 35.9333Z" fill="#C6CACC"/>
<path d="M49.3999 37.3334C46.3069 37.3334 43.7999 39.8403 43.7999 42.9334V47.4134C43.7999 48.0312 44.3021 48.5334 44.9199 48.5334H53.8799C54.4978 48.5334 54.9999 48.0312 54.9999 47.4134V42.9334C54.9999 39.8403 52.493 37.3334 49.3999 37.3334Z" fill="#00BAD4"/>
</svg>
