<svg width="103" height="65" viewBox="0 0 103 65" fill="none" xmlns="http://www.w3.org/2000/svg">
<rect width="101" height="64.2201" transform="translate(1 0.390137)" fill="#191D2B"/>
<path fill-rule="evenodd" clip-rule="evenodd" d="M88.1809 1.10825C87.8833 1.38142 87.51 1.93599 87.3513 2.34051C87.1926 2.74503 86.9568 3.11063 86.8273 3.15299C86.3345 3.3142 80.5457 4.37885 78.7812 4.63282C77.766 4.77893 76.5652 5.03192 76.1127 5.19511C75.1443 5.54397 72.9054 6.72566 70.2426 8.29333C67.0998 10.1437 66.4403 10.2535 62.6241 9.5622C60.0165 9.08988 57.8503 8.53794 54.0204 7.3702C48.8218 5.78497 45.2478 5.10891 42.8003 5.2478C38.4716 5.49324 30.2463 10.1734 28.2192 13.5442C27.9871 13.9303 27.4372 15.1123 26.9972 16.1709C23.5922 24.3628 20.376 28.4231 15.8948 30.1868C14.6522 30.6758 14.389 30.7198 12.6585 30.7279C10.8975 30.7362 10.7157 30.7064 9.86491 30.2697C8.1194 29.3738 6.65862 27.3133 6.06417 24.9087C5.68321 23.3676 5.71585 21.1576 6.13936 19.8194C6.55847 18.495 6.71702 16.2494 6.47481 15.0683C6.12712 13.3723 4.91577 11.4955 3.75827 10.859C3.02616 10.4564 2.10395 10.5577 1.58799 11.0974C0.693723 12.0326 0.809725 12.8648 2.00318 14.0744C3.35548 15.4451 3.44825 16.1193 2.77108 19.6552C2.16219 22.8351 2.08433 25.0996 2.52228 26.8804C3.29034 30.0036 4.78298 32.2419 6.92908 33.4891C8.17512 34.2132 10.3787 34.8991 11.8867 35.0324C14.6566 35.2774 18.6066 34.0333 21.6844 31.9467C23.0536 31.0185 25.6181 28.286 26.8259 26.4683C28.3779 24.1331 29.4474 22.6118 29.5375 22.611C29.5831 22.6106 29.7067 23.2722 29.812 24.0814C29.9173 24.8905 30.1556 25.9801 30.3415 26.503C30.9577 28.2371 31.7382 28.7089 36.1257 30.0003C42.9591 32.0114 43.8287 32.6089 45.3962 36.3694C45.761 37.2443 46.1907 38.1563 46.3511 38.396C46.7346 38.9691 46.7219 39.027 46.2111 39.0293C45.1616 39.0341 42.837 39.9569 41.8091 40.7768C41.1293 41.319 40.6785 42.0959 40.6808 42.7212C40.6848 43.7855 41.1525 43.9534 44.1022 43.9492C46.5831 43.9457 48.1443 43.7712 49.3897 43.358C50.6158 42.9512 52.4507 41.9673 52.4507 41.7166C52.4507 41.3891 52.2989 41.4257 51.015 42.0625C48.9182 43.1029 47.7552 43.3092 44.2792 43.2583C41.3433 43.2153 41.2255 43.2009 41.1814 42.8788C41.0092 41.6212 43.657 39.8996 46.2539 39.5803C47.0131 39.487 47.2225 39.5295 47.8995 39.915C48.9978 40.5402 50.2815 40.7774 55.1226 41.2499C59.8479 41.7112 61.4357 41.9632 63.4647 42.5736C64.2212 42.8013 65.8408 43.1618 67.0639 43.3749C69.2449 43.7546 69.3003 43.7748 69.9343 44.4141C71.0277 45.5165 72.2146 45.9225 74.3437 45.9225C75.3571 45.9225 75.5609 45.8701 75.9797 45.5016C76.9126 44.6806 76.9451 43.3138 76.0539 42.382C75.4229 41.7219 74.6279 41.4448 69.0896 39.9538C66.8881 39.3611 64.6983 38.7356 64.2235 38.5637C61.1689 37.4582 56.0643 35.0575 55.959 34.6768C55.934 34.5865 56.4524 34.1063 57.111 33.6097C57.7695 33.1131 58.9893 32.005 59.8217 31.1472C61.2351 29.6908 61.3753 29.4854 61.9396 28.0443C62.5872 26.3908 62.6128 26.3557 63.9808 25.2403C65.0314 24.384 66.4842 22.7121 67.1857 21.5521C67.964 20.2655 67.7646 19.3366 66.7598 19.5674C65.6854 19.8143 64.1659 21.7655 62.8759 24.5549L62.2614 25.8839L61.1626 26.3657C58.6835 27.453 57.0556 27.6574 55.8785 27.0293C54.8371 26.4736 52.8924 24.2509 52.5541 23.2296C51.8967 21.2447 50.8631 20.1077 48.4479 18.7124C44.0262 16.1581 41.1384 15.4909 41.5279 17.1132C41.6622 17.6735 42.7857 18.4036 45.3085 19.5702C49.0656 21.3076 50.0988 21.9474 51.6208 23.4788C52.2706 24.1328 52.2926 24.1921 52.9073 26.9479C53.2512 28.4901 53.679 30.4535 53.8578 31.3113C54.0366 32.1691 54.3555 33.2602 54.5667 33.7358L54.9504 34.6008L53.6612 35.4672C50.8246 37.3737 48.1329 38.8632 47.5245 38.8632C47.1761 38.8632 46.6318 37.93 45.7659 35.8487C45.2066 34.5046 44.8181 33.833 44.1874 33.1203C42.8404 31.5988 41.5333 30.9978 36.1538 29.4258C33.4398 28.6329 31.8283 27.9578 31.3786 27.4256C30.7008 26.6236 29.9313 22.5446 30.316 21.7927C30.5 21.4334 31.8255 20.2466 32.8566 19.5182C34.3 18.4987 34.582 17.6872 33.7832 16.8517C33.0469 16.0816 32.0255 16.2508 31.0719 17.3012C30.4944 17.937 30.0617 19.0214 29.8379 20.394C29.6748 21.3951 29.5452 21.6808 28.8328 22.6103C28.3831 23.1972 27.4913 24.4861 26.8512 25.4746C24.7977 28.6452 22.1542 31.225 19.5653 32.585C16.9314 33.9686 13.7211 34.7179 11.6252 34.4383C8.00826 33.956 5.41792 32.2906 4.06829 29.5802C2.67721 26.7865 2.45714 24.2653 3.2376 20.0657C4.01915 15.8603 3.97238 15.4617 2.50705 13.8234C1.47089 12.6649 1.35708 12.17 1.97743 11.5214C2.47974 10.9959 2.94092 11.0126 3.80803 11.5877C4.64751 12.1446 5.42577 13.3091 5.79654 14.5627C6.17829 15.8542 6.1279 18.1066 5.68587 19.4911C4.65567 22.7188 5.48526 26.8055 7.65351 29.1829C9.61486 31.3335 12.2882 31.9404 15.4055 30.9431C18.5842 29.9262 21.3902 27.5596 23.7178 23.9322C24.9798 21.9654 25.7397 20.4674 27.1793 17.1083C27.8667 15.5045 28.7074 13.8067 29.0479 13.3352C31.3285 10.1759 38.6689 6.1317 42.797 5.76018C44.7789 5.58173 50.0115 6.64457 55.0407 8.24687C59.07 9.53068 63.5812 10.4712 65.7147 10.4724C67.5505 10.4733 68.0023 10.2947 71.6621 8.12177C75.451 5.87214 76.1349 5.60274 79.2896 5.11729C83.7337 4.43319 87.3275 3.67948 87.4665 3.40236C87.5343 3.26692 87.7444 2.80133 87.9331 2.36776C88.7421 0.508202 89.9206 0.779084 91.1908 3.11654C91.6503 3.96202 91.6867 3.98812 93.2848 4.61591C95.8829 5.63672 96.8754 6.4254 97.8495 8.24359C98.2493 8.99007 98.7331 9.53085 99.8578 10.4888C100.673 11.1829 101.366 11.8343 101.399 11.9366C101.431 12.0387 101.334 12.2661 101.182 12.4418C101.029 12.6174 100.862 13.0356 100.81 13.371C100.74 13.8216 100.577 14.0787 100.184 14.3555C99.3169 14.9667 98.838 14.8606 97.8032 13.8285C96.8091 12.8367 96.6641 12.8108 95.1843 13.3609C94.3508 13.6707 94.0879 14.1084 94.4186 14.6362C94.7654 15.1896 96.0756 16.0435 96.5784 16.0435C96.8181 16.0435 97.1926 16.2164 97.4105 16.4275L97.8067 16.8115L97.3794 17.2296C97.1443 17.4596 96.716 17.7724 96.4277 17.9246C95.9218 18.1917 95.9067 18.1905 95.9982 17.8888C96.1594 17.3575 95.6293 17.0707 93.3817 16.4734C92.1992 16.1591 90.8 15.6994 90.2722 15.4517C89.4072 15.0457 89.3202 14.9603 89.3889 14.5847C89.5351 13.7847 88.5479 11.076 87.6583 9.83669C87.3901 9.46304 87.1631 9.30938 86.9303 9.34418C86.4126 9.42134 86.4264 10.2028 86.9727 11.7685C87.4223 13.0569 87.6825 13.6097 88.3131 14.6164C88.5834 15.0476 88.5826 15.0494 88.0589 15.2868C87.7701 15.4177 87.097 15.6856 86.5632 15.8821C85.1782 16.392 84.4963 17.0822 83.4479 19.0357C81.6991 22.2941 81.0006 23.1171 78.5079 24.8565C76.5092 26.2509 74.0171 27.6894 70.5808 29.4321C67.0035 31.246 63.1027 33.3925 61.3376 34.5181C60.7254 34.9086 60.203 35.2056 60.1768 35.178C60.0872 35.0843 60.6702 33.6926 61.0615 33.0662C61.4626 32.4243 62.5891 31.5942 66.4679 29.0826C70.8634 26.2362 72.4811 24.6216 75.0212 20.5464C77.8993 15.9284 77.8488 15.9806 80.7397 14.6402C82.5893 13.7824 83.06 13.3936 83.06 12.7236C83.06 12.0468 82.4232 11.5025 81.3585 11.2692C79.5558 10.8744 75.4826 11.285 72.1016 12.2022C70.5202 12.6312 70.174 12.8128 70.4317 13.0773C70.5242 13.1721 71.0618 13.084 71.8463 12.8453C75.0354 11.8754 80.2528 11.3801 81.6878 11.9113C82.2384 12.1152 82.5891 12.505 82.5891 12.9129C82.5891 13.009 81.5049 13.6354 80.1799 14.3051C77.4628 15.6782 77.2111 15.911 75.7267 18.424C73.932 21.4618 72.9009 22.9017 71.3699 24.5071C69.7764 26.1782 67.9735 27.5284 63.819 30.1621C61.6019 31.5676 60.6169 32.5141 60.0876 33.7476C59.6122 34.8556 59.3692 36.2365 59.6497 36.2365C59.7475 36.2365 60.1633 35.9872 60.5736 35.6825C61.8151 34.7606 64.8575 33.0414 69.3541 30.7208C77.1896 26.6771 80.5617 24.4677 82.0429 22.4071C82.4403 21.8541 83.0514 20.8795 83.401 20.2412C85.1683 17.0142 85.225 16.9556 87.337 16.174C88.0415 15.9133 88.6939 15.634 88.7867 15.5534C88.8914 15.4625 89.312 15.5914 89.8928 15.8921C90.4083 16.1589 91.8181 16.6375 93.0257 16.9551C95.211 17.5304 95.6425 17.7124 95.3174 17.9226C95.0823 18.0746 95.1021 18.6661 95.343 18.6884C96.1922 18.7671 96.898 18.4504 97.8247 17.5747C98.5105 16.9266 98.608 16.4756 98.1211 16.2031C97.9159 16.0883 97.8161 15.8925 97.8464 15.6638C97.8963 15.2852 97.7197 15.2505 96.8694 15.472C96.5745 15.5487 96.2726 15.4354 95.6921 15.0296C95.2627 14.7295 94.9114 14.3731 94.9114 14.2376C94.9114 13.9662 95.7661 13.6047 96.4421 13.5901C96.7451 13.5837 97.0498 13.7712 97.4624 14.2179C98.3595 15.1891 98.7947 15.4251 99.4513 15.2963C100.36 15.1181 101.233 14.3557 101.364 13.6271C101.425 13.2856 101.617 12.8054 101.79 12.5598C102.238 11.9254 102.053 11.6156 100.399 10.2327C99.626 9.58601 98.852 8.81522 98.679 8.51972C97.2328 6.04764 96.3161 5.24665 93.7389 4.20318C92.0367 3.51383 91.992 3.48248 91.5517 2.66655C91.3045 2.20835 90.8111 1.55856 90.4556 1.22251C89.6177 0.430711 88.9549 0.397551 88.1809 1.10825ZM88.2369 12.1034C88.4964 12.7806 88.7491 13.5932 88.7989 13.9093L88.8892 14.4839L88.4861 13.8272C88.0319 13.0873 87.2322 11.1254 87.0805 10.3796L86.9806 9.8871L87.373 10.3796C87.5888 10.6505 87.9776 11.4262 88.2369 12.1034ZM43.6046 17.0472C45.7813 17.7491 49.3023 19.6784 50.482 20.8156C51.132 21.4422 51.9605 22.7745 51.7002 22.7745C51.6217 22.7745 51.423 22.6177 51.2585 22.4261C50.611 21.6719 48.9428 20.6731 46.0431 19.3034C43.0508 17.8899 41.8412 17.1536 42.0184 16.8537C42.1509 16.6296 42.4063 16.6608 43.6046 17.0472ZM33.3676 17.1223C33.6639 17.4324 33.6876 18.0194 33.4179 18.3698C33.3101 18.5098 32.8714 18.8707 32.443 19.1716C32.0148 19.4725 31.3947 19.9734 31.0654 20.2845C30.7359 20.5958 30.4214 20.8033 30.3663 20.7457C30.1887 20.56 30.7989 18.6055 31.2108 18.0406C31.6519 17.4355 32.4496 16.866 32.8574 16.865C33.0023 16.8647 33.2318 16.9804 33.3676 17.1223ZM67.1165 20.5171C67.0557 20.7204 66.7887 21.219 66.5231 21.6253C65.9224 22.5441 63.4719 25.1623 63.3409 25.0253C63.2878 24.9698 63.5882 24.2753 64.0086 23.4819C64.8848 21.828 66.3276 20.1477 66.871 20.1477C67.1684 20.1477 67.2089 20.2087 67.1165 20.5171ZM56.3297 27.8002C57.4433 28.1407 58.7251 27.9626 60.5772 27.2105C61.2354 26.9433 61.7986 26.7505 61.8289 26.782C61.8591 26.8137 61.5999 27.4645 61.253 28.2284C60.7358 29.3671 60.4022 29.8368 59.401 30.8366C57.8225 32.4131 55.6319 34.1541 55.3627 34.0461C55.0712 33.929 54.5678 32.2594 54.1056 29.8766C53.7543 28.0654 53.3789 26.3803 53.1268 25.4833C53.0723 25.2896 53.5237 25.6402 54.2277 26.3388C55.2047 27.308 55.5859 27.573 56.3297 27.8002ZM57.5522 36.279C59.458 37.2773 63.8035 39.0553 65.6363 39.5868C66.4564 39.8246 68.6108 40.418 70.4239 40.9055C75.39 42.2405 76.1533 42.6265 76.1533 43.8027C76.1533 45.2791 75.1476 45.7099 72.7729 45.2509C71.6762 45.0388 70.8847 44.6425 70.3454 44.0349C69.7376 43.3503 69.2417 43.1536 67.4111 42.8712C66.4781 42.7273 64.783 42.3584 63.6443 42.0515C60.9612 41.3285 59.4417 41.0859 55.0059 40.6717C53.0012 40.4845 50.9527 40.2557 50.4537 40.1634C49.3621 39.9613 48.0555 39.5359 48.0555 39.3828C48.0555 39.3217 48.4679 39.1047 48.9719 38.9003C49.8558 38.5419 53.1933 36.5256 54.6483 35.4713C55.3402 34.9697 55.3627 34.9653 55.7471 35.2491C55.9629 35.4087 56.7752 35.872 57.5522 36.279Z" fill="url(#paint0_linear)" stroke="url(#paint1_linear)" stroke-width="0.729865"/>
<path d="M95.6569 8.99371C95.6569 9.59835 95.1667 10.0885 94.5621 10.0885C93.9575 10.0885 93.4673 9.59835 93.4673 8.99371C93.4673 8.38907 93.2276 8.1084 93.8323 8.1084C94.4369 8.1084 95.6569 8.38907 95.6569 8.99371Z" fill="white"/>
<path d="M6.12846 58.0696C5.25327 58.0696 4.45987 57.8815 3.74826 57.5052C3.04484 57.1208 2.48864 56.5932 2.07968 55.9225C1.67889 55.2436 1.47849 54.4789 1.47849 53.6282C1.47849 52.7775 1.67889 52.0169 2.07968 51.3462C2.48864 50.6673 3.04484 50.1397 3.74826 49.7635C4.45987 49.379 5.25736 49.1868 6.14073 49.1868C6.88505 49.1868 7.55576 49.3177 8.15285 49.5794C8.75812 49.8412 9.26524 50.2174 9.67421 50.7082L8.39823 51.886C7.81749 51.2153 7.09771 50.8799 6.23888 50.8799C5.70722 50.8799 5.23282 50.9985 4.81567 51.2357C4.39852 51.4648 4.07135 51.7878 3.83415 52.205C3.60513 52.6221 3.49061 53.0965 3.49061 53.6282C3.49061 54.1599 3.60513 54.6343 3.83415 55.0514C4.07135 55.4686 4.39852 55.7957 4.81567 56.0329C5.23282 56.262 5.70722 56.3765 6.23888 56.3765C7.09771 56.3765 7.81749 56.037 8.39823 55.3581L9.67421 56.536C9.26524 57.0349 8.75812 57.4152 8.15285 57.677C7.54758 57.9387 6.87278 58.0696 6.12846 58.0696ZM15.6296 51.2235C16.4475 51.2235 17.106 51.4689 17.6049 51.9596C18.112 52.4504 18.3656 53.1783 18.3656 54.1435V57.9224H16.4516V54.438C16.4516 53.9145 16.3371 53.526 16.1081 53.2724C15.8791 53.0107 15.5478 52.8798 15.1143 52.8798C14.6317 52.8798 14.2473 53.0311 13.961 53.3337C13.6747 53.6282 13.5316 54.0699 13.5316 54.6588V57.9224H11.6176V48.8187H13.5316V52.0087C13.7851 51.7551 14.0919 51.5629 14.4518 51.432C14.8116 51.293 15.2043 51.2235 15.6296 51.2235ZM27.3743 54.6465C27.3743 54.6711 27.362 54.8428 27.3375 55.1618H22.344C22.434 55.5708 22.6466 55.8939 22.982 56.1311C23.3173 56.3683 23.7345 56.4869 24.2334 56.4869C24.577 56.4869 24.8796 56.4378 25.1413 56.3397C25.4113 56.2333 25.6607 56.0697 25.8898 55.8489L26.9081 56.9531C26.2865 57.6647 25.3785 58.0205 24.1844 58.0205C23.44 58.0205 22.7816 57.8774 22.209 57.5911C21.6365 57.2966 21.1948 56.8918 20.884 56.3765C20.5732 55.8612 20.4178 55.2763 20.4178 54.622C20.4178 53.9758 20.5691 53.3951 20.8717 52.8798C21.1825 52.3563 21.6038 51.9514 22.1354 51.6652C22.6753 51.3707 23.2764 51.2235 23.939 51.2235C24.5851 51.2235 25.17 51.3625 25.6934 51.6406C26.2169 51.9187 26.6259 52.3195 26.9204 52.843C27.223 53.3583 27.3743 53.9595 27.3743 54.6465ZM23.9512 52.6712C23.5177 52.6712 23.1538 52.7939 22.8593 53.0393C22.5648 53.2847 22.3849 53.62 22.3195 54.0453H25.5708C25.5053 53.6282 25.3254 53.2969 25.0309 53.0516C24.7365 52.798 24.3766 52.6712 23.9512 52.6712ZM35.8505 54.6465C35.8505 54.6711 35.8382 54.8428 35.8137 55.1618H30.8202C30.9102 55.5708 31.1228 55.8939 31.4582 56.1311C31.7935 56.3683 32.2107 56.4869 32.7096 56.4869C33.0531 56.4869 33.3558 56.4378 33.6175 56.3397C33.8874 56.2333 34.1369 56.0697 34.3659 55.8489L35.3843 56.9531C34.7626 57.6647 33.8547 58.0205 32.6605 58.0205C31.9162 58.0205 31.2578 57.8774 30.6852 57.5911C30.1127 57.2966 29.671 56.8918 29.3602 56.3765C29.0493 55.8612 28.8939 55.2763 28.8939 54.622C28.8939 53.9758 29.0453 53.3951 29.3479 52.8798C29.6587 52.3563 30.0799 51.9514 30.6116 51.6652C31.1514 51.3707 31.7526 51.2235 32.4152 51.2235C33.0613 51.2235 33.6461 51.3625 34.1696 51.6406C34.6931 51.9187 35.1021 52.3195 35.3965 52.843C35.6992 53.3583 35.8505 53.9595 35.8505 54.6465ZM32.4274 52.6712C31.9939 52.6712 31.6299 52.7939 31.3355 53.0393C31.041 53.2847 30.8611 53.62 30.7956 54.0453H34.0469C33.9815 53.6282 33.8016 53.2969 33.5071 53.0516C33.2126 52.798 32.8527 52.6712 32.4274 52.6712ZM42.1182 57.6034C41.9301 57.7424 41.697 57.8487 41.4189 57.9224C41.149 57.9878 40.8627 58.0205 40.5601 58.0205C39.7748 58.0205 39.1655 57.8201 38.732 57.4193C38.3067 57.0185 38.094 56.4296 38.094 55.6526V52.9411H37.0757V51.4688H38.094V49.8616H40.008V51.4688H41.652V52.9411H40.008V55.6281C40.008 55.9062 40.0775 56.1229 40.2165 56.2783C40.3638 56.4255 40.5682 56.4992 40.83 56.4992C41.1326 56.4992 41.3903 56.4174 41.6029 56.2538L42.1182 57.6034ZM46.5912 51.2235C47.6136 51.2235 48.3988 51.4689 48.9468 51.9596C49.4948 52.4422 49.7688 53.1742 49.7688 54.1558V57.9224H47.9776V57.1003C47.6177 57.7138 46.947 58.0205 45.9654 58.0205C45.4583 58.0205 45.0166 57.9346 44.6404 57.7629C44.2723 57.5911 43.9901 57.3539 43.7938 57.0513C43.5975 56.7486 43.4994 56.4051 43.4994 56.0207C43.4994 55.4072 43.7284 54.9246 44.1864 54.5729C44.6527 54.2212 45.3683 54.0453 46.3335 54.0453H47.8549C47.8549 53.6282 47.7281 53.3092 47.4745 53.0884C47.221 52.8593 46.8406 52.7448 46.3335 52.7448C45.9818 52.7448 45.6342 52.8021 45.2906 52.9166C44.9553 53.0229 44.669 53.1702 44.4318 53.3583L43.7447 52.021C44.1046 51.7674 44.5341 51.5711 45.033 51.432C45.5401 51.293 46.0595 51.2235 46.5912 51.2235ZM46.4439 56.7323C46.7711 56.7323 47.0615 56.6587 47.315 56.5114C47.5686 56.356 47.7485 56.1311 47.8549 55.8366V55.1618H46.5421C45.7569 55.1618 45.3643 55.4195 45.3643 55.9348C45.3643 56.1802 45.4583 56.3765 45.6464 56.5237C45.8428 56.6627 46.1086 56.7323 46.4439 56.7323ZM56.2492 51.2235C57.0671 51.2235 57.7256 51.4689 58.2245 51.9596C58.7316 52.4504 58.9852 53.1783 58.9852 54.1435V57.9224H57.0712V54.438C57.0712 53.9145 56.9567 53.526 56.7277 53.2724C56.4987 53.0107 56.1674 52.8798 55.7339 52.8798C55.2513 52.8798 54.8669 53.0311 54.5806 53.3337C54.2943 53.6282 54.1512 54.0699 54.1512 54.6588V57.9224H52.2372V48.8187H54.1512V52.0087C54.4048 51.7551 54.7115 51.5629 55.0714 51.432C55.4313 51.293 55.8239 51.2235 56.2492 51.2235ZM69.9121 58.0696C69.0369 58.0696 68.2435 57.8815 67.5319 57.5052C66.8285 57.1208 66.2723 56.5932 65.8633 55.9225C65.4625 55.2436 65.2621 54.4789 65.2621 53.6282C65.2621 52.7775 65.4625 52.0169 65.8633 51.3462C66.2723 50.6673 66.8285 50.1397 67.5319 49.7635C68.2435 49.379 69.041 49.1868 69.9244 49.1868C70.6687 49.1868 71.3394 49.3177 71.9365 49.5794C72.5418 49.8412 73.0489 50.2174 73.4579 50.7082L72.1819 51.886C71.6011 51.2153 70.8814 50.8799 70.0225 50.8799C69.4909 50.8799 69.0165 50.9985 68.5993 51.2357C68.1822 51.4648 67.855 51.7878 67.6178 52.205C67.3888 52.6221 67.2743 53.0965 67.2743 53.6282C67.2743 54.1599 67.3888 54.6343 67.6178 55.0514C67.855 55.4686 68.1822 55.7957 68.5993 56.0329C69.0165 56.262 69.4909 56.3765 70.0225 56.3765C70.8814 56.3765 71.6011 56.037 72.1819 55.3581L73.4579 56.536C73.0489 57.0349 72.5418 57.4152 71.9365 57.677C71.3312 57.9387 70.6564 58.0696 69.9121 58.0696ZM78.3145 58.0205C77.6192 58.0205 76.9935 57.8774 76.4373 57.5911C75.8893 57.2966 75.4599 56.8918 75.1491 56.3765C74.8383 55.8612 74.6828 55.2763 74.6828 54.622C74.6828 53.9676 74.8383 53.3828 75.1491 52.8675C75.4599 52.3522 75.8893 51.9514 76.4373 51.6652C76.9935 51.3707 77.6192 51.2235 78.3145 51.2235C79.0097 51.2235 79.6314 51.3707 80.1794 51.6652C80.7274 51.9514 81.1568 52.3522 81.4676 52.8675C81.7784 53.3828 81.9338 53.9676 81.9338 54.622C81.9338 55.2763 81.7784 55.8612 81.4676 56.3765C81.1568 56.8918 80.7274 57.2966 80.1794 57.5911C79.6314 57.8774 79.0097 58.0205 78.3145 58.0205ZM78.3145 56.4501C78.8052 56.4501 79.206 56.2865 79.5168 55.9593C79.8358 55.624 79.9953 55.1782 79.9953 54.622C79.9953 54.0658 79.8358 53.6241 79.5168 53.2969C79.206 52.9616 78.8052 52.7939 78.3145 52.7939C77.8237 52.7939 77.4188 52.9616 77.0998 53.2969C76.7809 53.6241 76.6214 54.0658 76.6214 54.622C76.6214 55.1782 76.7809 55.624 77.0998 55.9593C77.4188 56.2865 77.8237 56.4501 78.3145 56.4501ZM90.6728 48.8187V57.9224H88.8447V57.1617C88.3703 57.7342 87.6832 58.0205 86.7835 58.0205C86.1618 58.0205 85.5975 57.8815 85.0903 57.6034C84.5914 57.3253 84.1988 56.9286 83.9125 56.4133C83.6262 55.898 83.4831 55.3009 83.4831 54.622C83.4831 53.9431 83.6262 53.346 83.9125 52.8307C84.1988 52.3154 84.5914 51.9187 85.0903 51.6406C85.5975 51.3625 86.1618 51.2235 86.7835 51.2235C87.6259 51.2235 88.2844 51.4893 88.7588 52.021V48.8187H90.6728ZM87.1147 56.4501C87.5973 56.4501 87.9981 56.2865 88.3171 55.9593C88.6361 55.624 88.7956 55.1782 88.7956 54.622C88.7956 54.0658 88.6361 53.6241 88.3171 53.2969C87.9981 52.9616 87.5973 52.7939 87.1147 52.7939C86.624 52.7939 86.2191 52.9616 85.9001 53.2969C85.5811 53.6241 85.4216 54.0658 85.4216 54.622C85.4216 55.1782 85.5811 55.624 85.9001 55.9593C86.2191 56.2865 86.624 56.4501 87.1147 56.4501ZM99.6461 54.6465C99.6461 54.6711 99.6339 54.8428 99.6093 55.1618H94.6158C94.7058 55.5708 94.9185 55.8939 95.2538 56.1311C95.5892 56.3683 96.0063 56.4869 96.5052 56.4869C96.8488 56.4869 97.1514 56.4378 97.4132 56.3397C97.6831 56.2333 97.9325 56.0697 98.1616 55.8489L99.1799 56.9531C98.5583 57.6647 97.6504 58.0205 96.4562 58.0205C95.7118 58.0205 95.0534 57.8774 94.4809 57.5911C93.9083 57.2966 93.4666 56.8918 93.1558 56.3765C92.845 55.8612 92.6896 55.2763 92.6896 54.622C92.6896 53.9758 92.8409 53.3951 93.1435 52.8798C93.4543 52.3563 93.8756 51.9514 94.4072 51.6652C94.9471 51.3707 95.5483 51.2235 96.2108 51.2235C96.857 51.2235 97.4418 51.3625 97.9653 51.6406C98.4887 51.9187 98.8977 52.3195 99.1922 52.843C99.4948 53.3583 99.6461 53.9595 99.6461 54.6465ZM96.2231 52.6712C95.7896 52.6712 95.4256 52.7939 95.1311 53.0393C94.8367 53.2847 94.6567 53.62 94.5913 54.0453H97.8426C97.7771 53.6282 97.5972 53.2969 97.3027 53.0516C97.0083 52.798 96.6484 52.6712 96.2231 52.6712Z" fill="white"/>
<defs>
<linearGradient id="paint0_linear" x1="51.5" y1="1.09913" x2="51.5" y2="46.5117" gradientUnits="userSpaceOnUse">
<stop stop-color="#00F3FF"/>
<stop offset="0.238" stop-color="#00EFFC"/>
<stop offset="0.44" stop-color="#00E5F4"/>
<stop offset="0.629" stop-color="#00D3E7"/>
<stop offset="0.81" stop-color="#00BAD4"/>
<stop offset="0.983" stop-color="#009BBC"/>
<stop offset="1" stop-color="#0098BA"/>
</linearGradient>
<linearGradient id="paint1_linear" x1="51.5" y1="1.09913" x2="51.5" y2="46.5117" gradientUnits="userSpaceOnUse">
<stop stop-color="#00F3FF"/>
<stop offset="0.238" stop-color="#00EFFC"/>
<stop offset="0.44" stop-color="#00E5F4"/>
<stop offset="0.629" stop-color="#00D3E7"/>
<stop offset="0.81" stop-color="#00BAD4"/>
<stop offset="0.983" stop-color="#009BBC"/>
<stop offset="1" stop-color="#0098BA"/>
</linearGradient>
</defs>
</svg>
