<svg width="162" height="74" viewBox="0 0 162 74" fill="none" xmlns="http://www.w3.org/2000/svg">
<path fill-rule="evenodd" clip-rule="evenodd" d="M139.108 1.81105C138.637 2.24381 138.046 3.12233 137.794 3.76315C137.543 4.40397 137.169 4.98314 136.964 5.05024C136.183 5.30563 127.013 6.9922 124.218 7.39453C122.61 7.626 120.707 8.02677 119.99 8.28528C118.456 8.83794 114.91 10.7099 110.691 13.1934C105.713 16.1246 104.668 16.2986 98.6224 15.2035C94.4915 14.4552 91.0599 13.5809 84.9927 11.731C76.7573 9.21972 71.0954 8.14874 67.2182 8.36876C60.361 8.75757 47.3308 16.1717 44.1196 21.5115C43.7518 22.1232 42.8807 23.9957 42.1837 25.6727C36.7896 38.65 31.6947 45.0821 24.5957 47.876C22.6273 48.6508 22.2103 48.7205 19.469 48.7332C16.6792 48.7465 16.3912 48.6992 15.0434 48.0074C12.2782 46.5882 9.96416 43.324 9.02245 39.5147C8.41894 37.0734 8.47066 33.5723 9.14156 31.4525C9.8055 29.3545 10.0567 25.797 9.67297 23.926C9.12217 21.2392 7.2032 18.2661 5.36953 17.2578C4.20975 16.6201 2.74883 16.7805 1.93146 17.6354C0.514808 19.117 0.698574 20.4353 2.58919 22.3515C4.73146 24.5229 4.87842 25.591 3.80567 31.1924C2.84109 36.2298 2.71775 39.8172 3.41153 42.6382C4.62826 47.5858 6.99283 51.1316 10.3926 53.1074C12.3665 54.2546 15.8573 55.3411 18.2463 55.5523C22.6342 55.9404 28.8917 53.9695 33.7673 50.664C35.9364 49.1936 39.9989 44.8649 41.9124 41.9854C44.371 38.2861 46.0651 35.8761 46.2079 35.8748C46.2802 35.8742 46.4759 36.9223 46.6428 38.2042C46.8096 39.4859 47.1871 41.212 47.4815 42.0403C48.4578 44.7874 49.6942 45.5349 56.6447 47.5806C67.4699 50.7665 68.8475 51.7131 71.3307 57.6703C71.9086 59.0563 72.5892 60.501 72.8433 60.8807C73.4508 61.7886 73.4307 61.8804 72.6215 61.884C70.9589 61.8916 67.2764 63.3534 65.6481 64.6522C64.5712 65.5113 63.857 66.7419 63.8607 67.7325C63.867 69.4186 64.608 69.6846 69.2807 69.6779C73.2109 69.6724 75.6841 69.396 77.657 68.7414C79.5994 68.0969 82.506 66.5383 82.506 66.1411C82.506 65.6223 82.2656 65.6803 80.2317 66.6891C76.91 68.3372 75.0676 68.6641 69.5612 68.5835C64.9101 68.5153 64.7236 68.4925 64.6537 67.9822C64.3809 65.9901 68.5755 63.2627 72.6894 62.7568C73.892 62.6091 74.2237 62.6765 75.2962 63.2871C77.0361 64.2775 79.0697 64.6533 86.7388 65.4018C94.2244 66.1326 96.7397 66.5318 99.954 67.4987C101.152 67.8595 103.718 68.4306 105.656 68.7681C109.111 69.3697 109.198 69.4017 110.203 70.4144C111.935 72.1608 113.815 72.8039 117.188 72.8039C118.793 72.8039 119.116 72.721 119.78 72.1371C121.258 70.8365 121.309 68.6714 119.897 67.1952C118.898 66.1495 117.638 65.7105 108.865 63.3485C105.377 62.4096 101.908 61.4188 101.156 61.1465C96.317 59.3952 88.2306 55.5921 88.0637 54.989C88.0242 54.846 88.8453 54.0853 89.8887 53.2985C90.9319 52.5118 92.8643 50.7563 94.1829 49.3975C96.4219 47.0904 96.644 46.765 97.5379 44.4821C98.5639 41.8626 98.6045 41.807 100.772 40.0401C102.436 38.6835 104.737 36.035 105.849 34.1973C107.082 32.1591 106.766 30.6876 105.174 31.0533C103.472 31.4444 101.065 34.5354 99.0212 38.9543L98.0477 41.0596L96.307 41.8229C92.3798 43.5453 89.8009 43.8691 87.9362 42.8741C86.2865 41.9937 83.2058 38.4726 82.6699 36.8547C81.6285 33.7104 79.991 31.9092 76.165 29.6988C69.1603 25.6524 64.5856 24.5954 65.2025 27.1655C65.4154 28.0531 67.1951 29.2096 71.1917 31.0577C77.1435 33.81 78.7803 34.8235 81.1913 37.2495C82.2208 38.2856 82.2556 38.3795 83.2294 42.7451C83.7742 45.1882 84.4518 48.2987 84.7351 49.6575C85.0183 51.0164 85.5236 52.7448 85.8581 53.4983L86.466 54.8686L84.4237 56.241C79.9301 59.2612 75.6659 61.6208 74.7021 61.6208C74.1503 61.6208 73.2879 60.1426 71.9163 56.8454C71.0303 54.7162 70.4148 53.6522 69.4157 52.5233C67.2819 50.1129 65.2112 49.1608 56.6892 46.6706C52.3897 45.4145 49.8369 44.345 49.1245 43.5019C48.0507 42.2314 46.8318 35.7697 47.4413 34.5786C47.7327 34.0093 49.8324 32.1292 51.4659 30.9753C53.7524 29.3602 54.1993 28.0747 52.9338 26.7512C51.7673 25.5312 50.1492 25.7993 48.6386 27.4633C47.7237 28.4705 47.0384 30.1883 46.6838 32.3627C46.4254 33.9487 46.2201 34.4012 45.0916 35.8737C44.3792 36.8035 42.9665 38.8453 41.9524 40.4112C38.6994 45.434 34.5116 49.5207 30.4103 51.6752C26.2379 53.8671 21.1522 55.054 17.832 54.6111C12.1022 53.847 7.99869 51.2089 5.86065 46.9151C3.65696 42.4894 3.30833 38.4955 4.54471 31.8426C5.78282 25.1806 5.70871 24.5491 3.38741 21.9539C1.74596 20.1186 1.56568 19.3347 2.54841 18.3072C3.34414 17.4747 4.07473 17.5012 5.44836 18.4122C6.77823 19.2944 8.01112 21.1391 8.59847 23.125C9.20323 25.171 9.12341 28.7392 8.42316 30.9323C6.79116 36.0456 8.10537 42.5196 11.5402 46.2857C14.6473 49.6926 18.8823 50.6541 23.8206 49.0742C28.8561 47.4633 33.3013 43.7141 36.9885 37.9678C38.9878 34.8522 40.1916 32.479 42.4721 27.1577C43.5611 24.617 44.8929 21.9274 45.4323 21.1804C49.0452 16.1756 60.6736 9.76899 67.213 9.18045C70.3527 8.89775 78.642 10.5815 86.609 13.1198C92.9921 15.1535 100.139 16.6435 103.518 16.6453C106.427 16.6469 107.142 16.3639 112.94 12.9216C118.942 9.35782 120.026 8.93104 125.023 8.16201C132.063 7.07829 137.756 5.8843 137.977 5.44529C138.084 5.23073 138.417 4.49317 138.716 3.80632C139.997 0.860485 141.864 1.2896 143.877 4.99251C144.604 6.33188 144.662 6.37323 147.194 7.36775C151.309 8.98487 152.882 10.2343 154.425 13.1146C155.058 14.2971 155.825 15.1538 157.606 16.6713C158.897 17.7709 159.996 18.8029 160.047 18.9649C160.099 19.1266 159.944 19.4868 159.703 19.7651C159.462 20.0434 159.198 20.7058 159.115 21.2371C159.004 21.951 158.745 22.3583 158.123 22.7968C156.75 23.765 155.991 23.597 154.352 21.9619C152.777 20.3909 152.547 20.3498 150.203 21.2213C148.882 21.712 148.466 22.4054 148.99 23.2415C149.539 24.1182 151.615 25.4708 152.411 25.4708C152.791 25.4708 153.384 25.7447 153.729 26.0791L154.357 26.6875L153.68 27.3499C153.308 27.7142 152.629 28.2097 152.173 28.4507C151.371 28.8739 151.347 28.8721 151.492 28.394C151.748 27.5525 150.908 27.0981 147.347 26.152C145.474 25.6539 143.257 24.9257 142.421 24.5333C141.051 23.8901 140.913 23.7549 141.022 23.1598C141.254 21.8925 139.69 17.6016 138.281 15.6383C137.856 15.0464 137.496 14.8029 137.127 14.8581C136.307 14.9803 136.329 16.2183 137.194 18.6986C137.907 20.7396 138.319 21.6153 139.318 23.21C139.746 23.8932 139.745 23.8961 138.915 24.2722C138.458 24.4794 137.391 24.9039 136.546 25.2152C134.352 26.023 133.271 27.1163 131.611 30.2109C128.84 35.3728 127.734 36.6766 123.785 39.432C120.618 41.6411 116.671 43.9198 111.227 46.6805C105.56 49.554 99.3806 52.9545 96.5843 54.7375C95.6145 55.3562 94.7869 55.8267 94.7454 55.783C94.6034 55.6345 95.527 53.4299 96.1469 52.4375C96.7822 51.4206 98.5669 50.1056 104.711 46.1268C111.675 41.6177 114.237 39.0599 118.261 32.6041C122.821 25.2885 122.741 25.3712 127.32 23.2477C130.25 21.8889 130.996 21.273 130.996 20.2117C130.996 19.1394 129.987 18.2772 128.301 17.9077C125.445 17.2822 118.992 17.9326 113.636 19.3857C111.131 20.0652 110.583 20.3529 110.991 20.7719C111.137 20.9222 111.989 20.7825 113.232 20.4044C118.284 18.8679 126.549 18.0832 128.822 18.9248C129.695 19.2478 130.25 19.8652 130.25 20.5115C130.25 20.6637 128.533 21.6561 126.434 22.7169C122.129 24.8922 121.73 25.261 119.379 29.2419C116.536 34.0543 114.902 36.3353 112.477 38.8786C109.953 41.5259 107.097 43.6647 100.515 47.837C97.0031 50.0635 95.4427 51.5628 94.6042 53.517C93.851 55.2722 93.466 57.4597 93.9104 57.4597C94.0653 57.4597 94.724 57.0649 95.374 56.5822C97.3408 55.1216 102.16 52.3982 109.284 48.7221C121.696 42.3162 127.038 38.8162 129.385 35.5517C130.014 34.6758 130.982 33.1318 131.536 32.1206C134.336 27.0086 134.426 26.9158 137.772 25.6776C138.888 25.2646 139.921 24.8222 140.068 24.6945C140.234 24.5504 140.9 24.7546 141.82 25.2311C142.637 25.6537 144.87 26.4118 146.783 26.915C150.245 27.8263 150.929 28.1147 150.414 28.4476C150.041 28.6885 150.073 29.6255 150.454 29.6609C151.8 29.7854 152.918 29.2838 154.386 27.8965C155.472 26.8698 155.627 26.1553 154.855 25.7236C154.53 25.5418 154.372 25.2316 154.42 24.8693C154.499 24.2696 154.219 24.2147 152.872 24.5655C152.405 24.687 151.927 24.5075 151.007 23.8646C150.327 23.3892 149.77 22.8246 149.77 22.61C149.77 22.1801 151.124 21.6075 152.195 21.5843C152.675 21.5742 153.158 21.8712 153.812 22.5788C155.233 24.1174 155.922 24.4911 156.962 24.2873C158.402 24.0048 159.786 22.797 159.992 21.6428C160.089 21.1019 160.393 20.3412 160.668 19.9521C161.377 18.9472 161.084 18.4564 158.464 16.2656C157.239 15.2412 156.013 14.0201 155.739 13.552C153.448 9.63583 151.996 8.36694 147.913 6.71392C145.217 5.62188 145.146 5.57221 144.448 4.27965C144.057 3.55379 143.275 2.52442 142.712 1.99205C141.384 0.737727 140.335 0.685197 139.108 1.81105ZM139.197 19.2291C139.608 20.3019 140.009 21.5893 140.087 22.0899L140.23 23.0002L139.592 21.9599C138.872 20.7877 137.605 17.6799 137.365 16.4984L137.207 15.7181L137.828 16.4984C138.17 16.9275 138.786 18.1563 139.197 19.2291ZM68.4924 27.0609C71.9407 28.1727 77.5185 31.2291 79.3872 33.0306C80.417 34.0233 81.7294 36.1338 81.3171 36.1338C81.1928 36.1338 80.878 35.8854 80.6174 35.5819C79.5917 34.3871 76.9491 32.8049 72.3554 30.6351C67.6151 28.3959 65.6989 27.2294 65.9796 26.7543C66.1895 26.3993 66.5941 26.4487 68.4924 27.0609ZM52.2753 27.1798C52.7448 27.671 52.7824 28.6011 52.3552 29.1561C52.1843 29.3779 51.4893 29.9495 50.8107 30.4262C50.1323 30.903 49.1501 31.6964 48.6284 32.1893C48.1064 32.6824 47.6081 33.0111 47.5208 32.9198C47.2396 32.6257 48.2062 29.5295 48.8587 28.6346C49.5574 27.676 50.8211 26.7738 51.4672 26.7722C51.6967 26.7717 52.0602 26.9551 52.2753 27.1798ZM105.739 32.5578C105.643 32.8798 105.22 33.6696 104.799 34.3133C103.847 35.7689 99.9654 39.9165 99.7578 39.6994C99.6738 39.6115 100.15 38.5114 100.816 37.2544C102.204 34.6345 104.489 31.9726 105.35 31.9726C105.821 31.9726 105.885 32.0691 105.739 32.5578ZM88.6511 44.0954C90.4151 44.6348 92.4457 44.3526 95.3798 43.1612C96.4224 42.7378 97.3146 42.4325 97.3626 42.4824C97.4104 42.5326 96.9998 43.5635 96.4503 44.7736C95.6309 46.5775 95.1025 47.3216 93.5165 48.9054C91.0159 51.4029 87.5455 54.1609 87.1191 53.9898C86.6573 53.8044 85.8598 51.1594 85.1277 47.3848C84.5712 44.5154 83.9764 41.846 83.577 40.425C83.4907 40.1181 84.2059 40.6736 85.3212 41.7802C86.8689 43.3157 87.4726 43.7354 88.6511 44.0954ZM90.5877 57.527C93.6068 59.1085 100.491 61.9251 103.394 62.7672C104.693 63.1438 108.106 64.084 110.978 64.8561C118.845 66.971 120.055 67.5825 120.055 69.4459C120.055 71.7847 118.462 72.4671 114.7 71.74C112.962 71.404 111.708 70.7762 110.854 69.8136C109.891 68.7291 109.106 68.4176 106.206 67.9702C104.728 67.7422 102.042 67.1578 100.238 66.6717C95.988 65.5263 93.5809 65.142 86.5538 64.4858C83.3781 64.1893 80.133 63.8268 79.3425 63.6806C77.6133 63.3605 75.5434 62.6866 75.5434 62.444C75.5434 62.3472 76.1966 62.0034 76.9951 61.6796C78.3953 61.1119 83.6825 57.9177 85.9874 56.2475C87.0835 55.453 87.119 55.446 87.728 55.8956C88.0699 56.1484 89.3568 56.8823 90.5877 57.527Z" fill="url(#paint0_linear)" stroke="url(#paint1_linear)" stroke-width="1.15622"/>
<defs>
<linearGradient id="paint0_linear" x1="81" y1="1.7966" x2="81" y2="73.7373" gradientUnits="userSpaceOnUse">
<stop stop-color="#00F3FF"/>
<stop offset="0.238" stop-color="#00EFFC"/>
<stop offset="0.44" stop-color="#00E5F4"/>
<stop offset="0.629" stop-color="#00D3E7"/>
<stop offset="0.81" stop-color="#00BAD4"/>
<stop offset="0.983" stop-color="#009BBC"/>
<stop offset="1" stop-color="#0098BA"/>
</linearGradient>
<linearGradient id="paint1_linear" x1="81" y1="1.7966" x2="81" y2="73.7373" gradientUnits="userSpaceOnUse">
<stop stop-color="#00F3FF"/>
<stop offset="0.238" stop-color="#00EFFC"/>
<stop offset="0.44" stop-color="#00E5F4"/>
<stop offset="0.629" stop-color="#00D3E7"/>
<stop offset="0.81" stop-color="#00BAD4"/>
<stop offset="0.983" stop-color="#009BBC"/>
<stop offset="1" stop-color="#0098BA"/>
</linearGradient>
</defs>
</svg>
