<svg width="32" height="44" viewBox="0 0 32 44" fill="none" xmlns="http://www.w3.org/2000/svg">
<g clip-path="url(#clip0)">
<path d="M10.2599 2.66603L10.2598 2.66622C9.98368 3.33261 9.66814 3.91418 9.10598 4.27887C8.55054 4.63919 7.88214 4.70374 7.13946 4.70374C5.96961 4.70374 5.27911 4.98153 4.86737 5.41006C4.44946 5.84501 4.17655 6.58205 4.17655 7.81807V9.30146V9.77766L3.74559 9.98022L2.55838 10.5382C1.56456 11.0055 1.05798 11.5828 0.868937 12.1972C0.676331 12.8232 0.761259 13.655 1.30555 14.7309M10.2599 2.66603L1.30555 14.7309M10.2599 2.66603C10.3113 2.54196 10.4362 2.34357 10.6217 2.12773M10.2599 2.66603L10.6217 2.12773M1.30555 14.7309C1.6268 15.3659 1.86562 15.8596 1.94293 16.2756C1.98774 16.5166 1.98479 16.7517 1.91878 16.9904C1.85728 17.2128 1.75119 17.3986 1.65626 17.5485L1.65623 17.5486C1.20994 18.2532 0.970068 18.7204 0.850191 19.0973C0.739432 19.4454 0.725065 19.7356 0.784607 20.1026L1.30555 14.7309ZM10.6217 2.12773C10.8038 1.91584 11.001 1.73743 11.1586 1.63333L10.6217 2.12773ZM2.59515 22.4348C1.48312 21.8487 0.948748 21.1139 0.784611 20.1026L11.1588 1.6332C11.5198 1.39516 12.0863 1.26031 12.7307 1.29605C13.3691 1.33147 13.9901 1.53002 14.4353 1.84698C14.9049 2.1814 15.4069 2.52221 15.9912 2.52624C16.5809 2.53031 17.0814 2.19118 17.5431 1.86248L17.5431 1.86242C19.1008 0.753087 21.0037 1.21844 21.8095 2.80858L21.8096 2.8086C22.1328 3.44632 22.4364 4.03247 22.9776 4.36209C23.515 4.68946 24.1789 4.69736 24.906 4.69972H24.906C26.0066 4.70323 26.6994 4.98113 27.1227 5.40447C27.5461 5.82782 27.824 6.52063 27.8275 7.62115V7.62122C27.8298 8.34413 27.8412 9.00343 28.152 9.52823C28.476 10.0753 29.0496 10.3564 29.6432 10.6352C30.5032 11.0392 30.9624 11.5953 31.133 12.2177C31.3086 12.8584 31.2148 13.7024 30.6944 14.7309C30.3732 15.3659 30.1344 15.8596 30.0571 16.2756C30.0123 16.5166 30.0152 16.7517 30.0812 16.9904C30.1427 17.2128 30.2488 17.3986 30.3437 17.5485L30.3438 17.5486C30.7901 18.2532 31.0299 18.7204 31.1498 19.0973C31.2606 19.4454 31.2749 19.7356 31.2154 20.1026C31.0513 21.1139 30.5169 21.8487 29.4049 22.4348L29.4048 22.4348C29.3843 22.4457 29.3636 22.4565 29.3428 22.4674C28.9014 22.6992 28.4278 22.948 28.1589 23.4705C28.0271 23.7264 27.9627 24.007 27.9186 24.2944C27.8744 24.5823 27.8424 24.9396 27.8051 25.3694L27.8051 25.3694C27.7006 26.5744 27.3872 27.2735 26.9415 27.6862C26.4976 28.0975 25.7859 28.3506 24.5941 28.3506C24.2809 28.3506 23.996 28.3524 23.754 28.3777C23.5029 28.4039 23.2411 28.46 22.9899 28.6031C22.7364 28.7477 22.5564 28.945 22.4095 29.1499C22.2696 29.3449 22.1325 29.5866 21.9865 29.8479L21.9865 29.8479C21.841 30.1082 21.6305 30.4107 21.4079 30.6833C21.1786 30.964 20.9734 31.1677 20.8478 31.2605L20.8477 31.2606C20.5155 31.5063 19.9631 31.665 19.3368 31.6582C18.7127 31.6514 18.1435 31.4813 17.7867 31.2175C17.5205 31.0206 17.2112 30.8481 16.9212 30.7227C16.6558 30.6079 16.3121 30.4908 16 30.4908C15.6879 30.4908 15.3442 30.6079 15.0788 30.7227C14.7888 30.8481 14.4795 31.0206 14.2133 31.2175C13.8565 31.4813 13.2873 31.6514 12.6632 31.6582C12.0369 31.665 11.4845 31.5063 11.1523 31.2606L11.1522 31.2605C11.0266 31.1677 10.8214 30.964 10.5921 30.6832C10.3695 30.4107 10.159 30.1082 10.0135 29.8479L10.0135 29.8479C9.86751 29.5866 9.73041 29.3449 9.59054 29.1499C9.44358 28.945 9.26362 28.7477 9.01009 28.6032C8.75892 28.46 8.4971 28.4039 8.24599 28.3777C8.00395 28.3524 7.71914 28.3506 7.40591 28.3506C6.21406 28.3506 5.50243 28.0975 5.05845 27.6862C4.61284 27.2735 4.29942 26.5744 4.19488 25.3694L4.19487 25.3694C4.15756 24.9396 4.12559 24.5823 4.0814 24.2944C4.03731 24.007 3.97289 23.7264 3.84115 23.4705C3.5722 22.948 3.09857 22.6992 2.65716 22.4674C2.63642 22.4565 2.61575 22.4457 2.59518 22.4348L2.59515 22.4348Z" stroke="#00BAD4" stroke-width="1.5"/>
<path d="M14.2405 19.4569L14.7672 19.9893L15.3004 19.4633L18.2803 16.5232C19.0915 15.7229 19.869 14.9988 20.4658 14.4783C20.7656 14.2169 21.0113 14.0142 21.1888 13.8804C21.2091 13.8651 21.2279 13.8512 21.2451 13.8386C21.3074 13.8683 21.3801 13.9143 21.4557 13.9778C21.5811 14.0831 21.6853 14.2118 21.7548 14.3385C21.69 14.4529 21.564 14.6334 21.3362 14.908C20.8312 15.5168 19.9458 16.4473 18.4955 17.9108L18.4955 17.9109C17.3438 19.0734 16.3892 19.9864 15.686 20.6048C15.3327 20.9155 15.055 21.1411 14.8542 21.2849C14.8322 21.3007 14.8118 21.315 14.7929 21.3279C14.7885 21.3251 14.7839 21.3222 14.7793 21.3192C14.6209 21.2178 14.4103 21.0604 14.1581 20.8528C13.6569 20.4403 13.0443 19.8734 12.4476 19.2764C11.8509 18.6794 11.2842 18.0666 10.8718 17.5651C10.6643 17.3128 10.5069 17.1021 10.4056 16.9437C10.3769 16.8989 10.3557 16.8628 10.3403 16.8348C10.3674 16.7307 10.4471 16.5806 10.6025 16.4439C10.692 16.3652 10.7779 16.3183 10.8407 16.2973C10.855 16.2925 10.8664 16.2895 10.8752 16.2877C10.8974 16.3017 10.9338 16.3254 10.9864 16.3631C11.1042 16.4476 11.2575 16.5686 11.4373 16.7207C11.7958 17.0238 12.2318 17.4268 12.6543 17.8536C12.6544 17.8537 12.6545 17.8537 12.6545 17.8538L14.2405 19.4569ZM21.7975 14.2525C21.7988 14.2475 21.7998 14.2448 21.8 14.2447C21.8002 14.2447 21.7995 14.2472 21.7975 14.2525ZM14.6236 21.4299C14.6238 21.4295 14.6287 21.4271 14.6379 21.4237C14.628 21.4285 14.6234 21.4302 14.6236 21.4299ZM14.9456 21.4131C14.9512 21.415 14.9542 21.4162 14.9543 21.4164C14.9544 21.4166 14.9516 21.4157 14.9456 21.4131ZM10.3084 16.7685C10.3086 16.7686 10.3098 16.7716 10.3116 16.7771C10.3091 16.7712 10.3082 16.7684 10.3084 16.7685Z" stroke="white" stroke-width="1.5"/>
<path d="M6.17184 31.1371L6.17183 31.1371C6.12718 31.1286 6.10253 31.1265 6.0906 31.1262C6.08296 31.1317 6.06814 31.1434 6.04595 31.1666C6.00853 31.2056 5.95791 31.2687 5.8915 31.3699C5.6117 31.7964 5.2093 32.6459 4.44676 34.3188C3.9997 35.2997 3.59411 36.2462 3.30118 36.9796C3.15447 37.3469 3.03779 37.6563 2.95857 37.8878C2.9188 38.0041 2.89037 38.0952 2.87249 38.1614C2.86261 38.1979 2.85831 38.2185 2.85659 38.2268C2.85944 38.4295 2.90328 38.4829 2.90865 38.4888C2.91124 38.4916 2.92142 38.5027 2.95649 38.5153C2.99518 38.5292 3.06198 38.5438 3.16996 38.5465C3.39163 38.5519 3.71937 38.5061 4.19126 38.3854C4.65735 38.2661 5.23574 38.0813 5.94889 37.8276L5.94893 37.8276C6.94109 37.4748 7.66082 37.2447 8.15769 37.1339C8.40233 37.0793 8.62709 37.0454 8.81784 37.0528C8.98743 37.0594 9.28885 37.1059 9.46108 37.3842L9.46121 37.3844C9.51373 37.4694 9.57594 37.6132 9.63336 37.7524C9.69755 37.908 9.77572 38.1081 9.86237 38.3377C10.0359 38.7974 10.2471 39.3852 10.4546 39.9914C10.9034 41.3015 11.15 41.9442 11.365 42.2725C11.4604 42.4183 11.5224 42.457 11.557 42.4731C11.6009 42.4936 11.6747 42.5116 11.8534 42.5116C11.95 42.5116 12.0707 42.4883 12.1803 42.4464C12.2335 42.4261 12.2762 42.4043 12.3067 42.3849C12.322 42.3752 12.3315 42.3679 12.3366 42.3637C12.3426 42.3537 12.3588 42.3274 12.3876 42.2761C12.4289 42.2024 12.4837 42.1003 12.5509 41.9713C12.6849 41.714 12.8629 41.3605 13.0727 40.9353C13.4918 40.0856 14.0337 38.9577 14.5968 37.7573L15.0495 37.9696L14.5968 37.7573C15.5674 35.6885 16.0554 34.6247 16.2515 34.0331C16.2989 33.89 16.3239 33.7898 16.3353 33.7197C16.3398 33.6926 16.3418 33.6725 16.3426 33.6582L6.17184 31.1371ZM6.17184 31.1371C6.19938 31.1424 6.22616 31.1479 6.25204 31.1535M6.17184 31.1371L6.25204 31.1535M6.25204 31.1535C6.18501 31.3044 6.10175 31.489 6.00498 31.7011C5.73198 32.2994 5.3548 33.11 4.93952 33.988L6.25204 31.1535ZM16.2334 33.5843C16.2609 33.6001 16.2902 33.619 16.3203 33.6412L4.93948 33.9881C4.52112 34.8721 4.1533 35.6923 3.89746 36.3028C3.77005 36.6068 3.6677 36.8652 3.6006 37.0558C3.56777 37.1491 3.53901 37.2384 3.52072 37.3135C3.51216 37.3487 3.50103 37.4 3.49692 37.4556C3.49492 37.4826 3.49289 37.5306 3.50174 37.5877C3.50877 37.6331 3.53359 37.7617 3.64583 37.8744L3.64654 37.8751C3.72957 37.9581 3.81977 37.9917 3.86658 38.0057C3.91774 38.021 3.96216 38.0259 3.99027 38.0279C4.04623 38.0318 4.09685 38.0276 4.13022 38.0239C4.20059 38.0161 4.27952 38.0001 4.35615 37.9822C4.51371 37.9454 4.72179 37.886 4.9612 37.8114C5.44294 37.6612 6.08419 37.4388 6.77059 37.1805L6.77064 37.1805C7.64248 36.8524 8.26895 36.6471 8.7088 36.5442C8.92886 36.4927 9.08467 36.4711 9.19105 36.468C9.22634 36.4669 9.25185 36.468 9.26934 36.4696C9.29091 36.4965 9.3193 36.5355 9.35424 36.5888C9.44045 36.7202 9.54636 36.9073 9.66479 37.1412C9.90071 37.607 10.1696 38.225 10.4115 38.8793C10.6617 39.5562 10.9137 40.1759 11.1195 40.6304C11.2217 40.856 11.3166 41.0503 11.3973 41.193C11.4364 41.2622 11.4806 41.3344 11.5275 41.3951C11.55 41.4242 11.5859 41.4674 11.6339 41.508C11.6632 41.5329 11.789 41.639 11.9821 41.639C12.1378 41.639 12.2452 41.5684 12.2777 41.5461C12.3223 41.5155 12.3549 41.4834 12.3735 41.4639C12.4119 41.4238 12.4444 41.3801 12.4683 41.3461C12.5186 41.2746 12.5756 41.1813 12.6356 41.077C12.7575 40.8651 12.9158 40.5661 13.0982 40.2056C13.464 39.4826 13.9384 38.4896 14.434 37.4C14.9266 36.317 15.3942 35.313 15.7504 34.5683C15.9287 34.1956 16.078 33.89 16.1881 33.6728C16.2042 33.6411 16.2193 33.6116 16.2334 33.5843ZM9.23829 36.4343C9.23828 36.4342 9.23904 36.4349 9.24057 36.4364C9.23906 36.4351 9.2383 36.4343 9.23829 36.4343ZM6.08125 31.1267C6.08107 31.1266 6.08236 31.1263 6.08566 31.1263C6.08307 31.1268 6.08142 31.1268 6.08125 31.1267ZM16.3523 33.3649C16.355 33.3606 16.3563 33.3587 16.3563 33.3589C16.3562 33.3591 16.3549 33.3612 16.3523 33.3649Z" stroke="#00BAD4"/>
<path d="M27.0277 31.1371L27.0278 31.1371C27.0724 31.1286 27.0971 31.1265 27.109 31.1262C27.1166 31.1317 27.1314 31.1434 27.1536 31.1666C27.1911 31.2056 27.2417 31.2687 27.3081 31.3699C27.5879 31.7964 27.9903 32.6459 28.7528 34.3188C29.1999 35.2997 29.6055 36.2462 29.8984 36.9796C30.0451 37.3469 30.1618 37.6563 30.241 37.8878C30.2808 38.0041 30.3092 38.0952 30.3271 38.1614C30.337 38.1979 30.3413 38.2185 30.343 38.2268C30.3401 38.4295 30.2963 38.4829 30.2909 38.4888C30.2883 38.4916 30.2782 38.5027 30.2431 38.5153C30.2044 38.5292 30.1376 38.5438 30.0296 38.5465C29.808 38.5519 29.4802 38.5061 29.0083 38.3854C28.5422 38.2661 27.9638 38.0813 27.2507 37.8276L27.2507 37.8276C26.2585 37.4748 25.5388 37.2447 25.0419 37.1339C24.7973 37.0793 24.5725 37.0454 24.3817 37.0528C24.2122 37.0594 23.9107 37.1059 23.7385 37.3842L23.7384 37.3844C23.6859 37.4694 23.6236 37.6132 23.5662 37.7524C23.502 37.908 23.4239 38.1081 23.3372 38.3377C23.1637 38.7974 22.9525 39.3852 22.745 39.9914C22.2961 41.3015 22.0496 41.9442 21.8346 42.2725C21.7392 42.4183 21.6772 42.457 21.6426 42.4731C21.5986 42.4936 21.5249 42.5116 21.3462 42.5116C21.2496 42.5116 21.1289 42.4883 21.0193 42.4464C20.9661 42.4261 20.9234 42.4043 20.8928 42.3849C20.8775 42.3752 20.8681 42.3679 20.863 42.3637C20.857 42.3537 20.8408 42.3274 20.812 42.2761C20.7707 42.2024 20.7159 42.1003 20.6487 41.9713C20.5146 41.714 20.3367 41.3605 20.1269 40.9353C19.7078 40.0856 19.1659 38.9577 18.6028 37.7573L18.1501 37.9696L18.6028 37.7573C17.6322 35.6885 17.1442 34.6247 16.9481 34.0331C16.9007 33.89 16.8757 33.7898 16.8642 33.7197C16.8598 33.6926 16.8578 33.6725 16.857 33.6582L27.0277 31.1371ZM27.0277 31.1371C27.0002 31.1424 26.9734 31.1479 26.9475 31.1535M27.0277 31.1371L26.9475 31.1535M26.9475 31.1535C27.0146 31.3044 27.0978 31.489 27.1946 31.7011C27.4676 32.2994 27.8448 33.11 28.2601 33.988L26.9475 31.1535ZM16.9662 33.5843C16.9387 33.6001 16.9094 33.619 16.8793 33.6412L28.2601 33.9881C28.6785 34.8721 29.0463 35.6923 29.3021 36.3028C29.4295 36.6068 29.5319 36.8652 29.599 37.0558C29.6318 37.1491 29.6606 37.2384 29.6789 37.3135C29.6874 37.3487 29.6986 37.4 29.7027 37.4556C29.7047 37.4826 29.7067 37.5306 29.6978 37.5877C29.6908 37.6331 29.666 37.7617 29.5538 37.8744L29.553 37.8751C29.47 37.9581 29.3798 37.9917 29.333 38.0057C29.2818 38.021 29.2374 38.0259 29.2093 38.0279C29.1534 38.0318 29.1027 38.0276 29.0694 38.0239C28.999 38.0161 28.9201 38.0001 28.8434 37.9822C28.6859 37.9454 28.4778 37.886 28.2384 37.8114C27.7566 37.6612 27.1154 37.4388 26.429 37.1805L26.4289 37.1805C25.5571 36.8524 24.9306 36.6471 24.4908 36.5442C24.2707 36.4927 24.1149 36.4711 24.0085 36.468C23.9732 36.4669 23.9477 36.468 23.9302 36.4696C23.9087 36.4965 23.8803 36.5355 23.8453 36.5888C23.7591 36.7202 23.6532 36.9073 23.5348 37.1412C23.2989 37.607 23.03 38.225 22.7881 38.8793C22.5379 39.5562 22.2858 40.1759 22.08 40.6304C21.9779 40.856 21.8829 41.0503 21.8023 41.193C21.7632 41.2622 21.719 41.3344 21.672 41.3951C21.6495 41.4242 21.6137 41.4674 21.5657 41.508C21.5364 41.5329 21.4106 41.639 21.2175 41.639C21.0617 41.639 20.9544 41.5684 20.9219 41.5461C20.8773 41.5155 20.8447 41.4834 20.8261 41.4639C20.7877 41.4238 20.7552 41.3801 20.7313 41.3461C20.681 41.2746 20.624 41.1813 20.564 41.077C20.4421 40.8651 20.2838 40.5661 20.1014 40.2056C19.7356 39.4826 19.2612 38.4896 18.7656 37.4C18.273 36.317 17.8054 35.313 17.4492 34.5683C17.2709 34.1956 17.1216 33.89 17.0114 33.6728C16.9954 33.6411 16.9803 33.6116 16.9662 33.5843ZM23.9613 36.4343C23.9613 36.4342 23.9605 36.4349 23.959 36.4364C23.9605 36.4351 23.9613 36.4343 23.9613 36.4343ZM27.1183 31.1267C27.1185 31.1266 27.1172 31.1263 27.1139 31.1263C27.1165 31.1268 27.1182 31.1268 27.1183 31.1267ZM16.8473 33.3649C16.8446 33.3606 16.8433 33.3587 16.8433 33.3589C16.8434 33.3591 16.8447 33.3612 16.8473 33.3649Z" stroke="#00BAD4"/>
</g>
<defs>
<clipPath id="clip0">
<rect width="32" height="42.5057" fill="white" transform="translate(0 0.505859)"/>
</clipPath>
</defs>
</svg>
